<svg xmlns="http://www.w3.org/2000/svg" width="139" height="104" viewBox="0 0 139 104">
  <g id="Group_20312" data-name="Group 20312" transform="translate(-354 -7660)">
    <g id="Ellipse_998" data-name="Ellipse 998" transform="translate(473 7681)" fill="#fff" stroke="#ed0f68" stroke-width="1" stroke-dasharray="4">
      <circle cx="10" cy="10" r="10" stroke="none"/>
      <circle cx="10" cy="10" r="9.5" fill="none"/>
    </g>
    <g id="Ellipse_999" data-name="Ellipse 999" transform="translate(354 7660)" fill="#fff" stroke="#ed0f68" stroke-width="0.8">
      <circle cx="6" cy="6" r="6" stroke="none"/>
      <circle cx="6" cy="6" r="5.6" fill="none"/>
    </g>
    <circle id="Ellipse_1000" data-name="Ellipse 1000" cx="4.5" cy="4.5" r="4.5" transform="translate(420 7755)" fill="#ed0f68"/>
    <g id="calendar" transform="translate(375.008 7645.876)">
      <path id="Path_89680" data-name="Path 89680" d="M43.334,90.742H7.805a5.165,5.165,0,0,1-5.16-5.16V44.857h8.8a1.323,1.323,0,0,0,0-2.646h-8.8v-3.7a5.165,5.165,0,0,1,5.16-5.16h6.581v1.524a4.057,4.057,0,0,0,8.113,0V33.35h3.309v1.524a4.056,4.056,0,1,0,8.113,0V33.35h3.309v1.524a4.057,4.057,0,0,0,8.113,0V33.35h3.309v1.524a4.056,4.056,0,1,0,8.113,0V33.35h3.31v1.524a4.056,4.056,0,0,0,8.113,0V33.35h6.581a5.165,5.165,0,0,1,5.16,5.16v3.7H17.084a1.323,1.323,0,0,0,0,2.646H79.93V62.034a1.323,1.323,0,1,0,2.646,0V38.509A7.814,7.814,0,0,0,74.771,30.7H68.189V29.18a4.057,4.057,0,0,0-8.113,0V30.7H56.767V29.18a4.056,4.056,0,1,0-8.113,0V30.7H45.345V29.181a4.057,4.057,0,0,0-8.113,0V30.7H33.922V29.181a4.056,4.056,0,0,0-8.113,0V30.7H22.5V29.181a4.057,4.057,0,0,0-8.113,0V30.7H7.805A7.814,7.814,0,0,0,0,38.509V85.583a7.814,7.814,0,0,0,7.805,7.805H43.334a1.323,1.323,0,0,0,0-2.646ZM62.722,29.181a1.411,1.411,0,1,1,2.821,0v5.693a1.411,1.411,0,1,1-2.821,0Zm-11.423,0a1.411,1.411,0,1,1,2.821,0v5.693a1.411,1.411,0,1,1-2.821,0Zm-11.422,0a1.411,1.411,0,0,1,2.822,0v5.693a1.411,1.411,0,0,1-2.822,0Zm-11.423,0a1.411,1.411,0,1,1,2.821,0v5.693a1.411,1.411,0,1,1-2.821,0Zm-11.423,0a1.411,1.411,0,0,1,2.822,0v5.693a1.411,1.411,0,0,1-2.822,0Z" transform="translate(0 0)" fill="#ed0f68"/>
      <path id="Path_89681" data-name="Path 89681" d="M283.4,236.34a22.024,22.024,0,0,0-18.979,10.931,1.323,1.323,0,0,0,2.288,1.329,19.2,19.2,0,1,1-2,4.9,1.323,1.323,0,0,0-2.564-.653A21.939,21.939,0,1,0,283.4,236.34Z" transform="translate(-215.346 -173.961)" fill="#ed0f68"/>
      <path id="Path_89682" data-name="Path 89682" d="M380.979,269.932v-1.147a1.323,1.323,0,0,0-2.646,0v1.147a1.323,1.323,0,0,0,2.646,0Z" transform="translate(-311.601 -199.593)" fill="#ed0f68"/>
      <path id="Path_89683" data-name="Path 89683" d="M319.836,296.034a1.323,1.323,0,0,0,.936-2.258l-.811-.812a1.323,1.323,0,0,0-1.871,1.871l.811.812a1.318,1.318,0,0,0,.935.388Z" transform="translate(-261.664 -220.278)" fill="#ed0f68"/>
      <path id="Path_89684" data-name="Path 89684" d="M295.056,355.855a1.323,1.323,0,1,0,0-2.646h-1.147a1.323,1.323,0,1,0,0,2.646Z" transform="translate(-240.978 -270.216)" fill="#ed0f68"/>
      <path id="Path_89685" data-name="Path 89685" d="M318.089,412.311a1.323,1.323,0,0,0,1.871,0l.811-.811a1.323,1.323,0,1,0-1.871-1.871l-.811.811a1.323,1.323,0,0,0,0,1.871Z" transform="translate(-261.664 -316.365)" fill="#ed0f68"/>
      <path id="Path_89686" data-name="Path 89686" d="M378.333,433.774v1.147a1.323,1.323,0,1,0,2.646,0v-1.147a1.323,1.323,0,1,0-2.646,0Z" transform="translate(-311.601 -335.481)" fill="#ed0f68"/>
      <path id="Path_89687" data-name="Path 89687" d="M434.753,411.5l.811.811a1.323,1.323,0,0,0,1.871-1.871l-.811-.811a1.323,1.323,0,0,0-1.871,1.871Z" transform="translate(-357.75 -316.365)" fill="#ed0f68"/>
      <path id="Path_89688" data-name="Path 89688" d="M460.045,355.855a1.323,1.323,0,1,0,0-2.646H458.9a1.323,1.323,0,0,0,0,2.646Z" transform="translate(-376.866 -270.216)" fill="#ed0f68"/>
      <path id="Path_89689" data-name="Path 89689" d="M435.689,296.034a1.319,1.319,0,0,0,.936-.388l.811-.812a1.323,1.323,0,1,0-1.871-1.871l-.811.812a1.323,1.323,0,0,0,.935,2.258Z" transform="translate(-357.751 -220.278)" fill="#ed0f68"/>
      <path id="Path_89690" data-name="Path 89690" d="M346.516,315.7a1.323,1.323,0,1,0-1.967,1.769l3.026,3.365a4.668,4.668,0,1,0,8.28.633l2.434-1.99a1.323,1.323,0,0,0-1.675-2.048l-2.435,1.991a4.66,4.66,0,0,0-4.638-.356Zm7.059,7.578a2.023,2.023,0,1,1-3.382-1.5l.008-.006.008-.008a2.02,2.02,0,0,1,3.366,1.51Z" transform="translate(-283.496 -238.961)" fill="#ed0f68"/>
      <path id="Path_89691" data-name="Path 89691" d="M55.858,166.035a3.068,3.068,0,0,0-3.065-3.065H48.87a3.068,3.068,0,0,0-3.065,3.065v3.923a3.068,3.068,0,0,0,3.065,3.065h3.923a3.068,3.068,0,0,0,3.065-3.065Zm-2.646,3.923a.42.42,0,0,1-.419.419H48.87a.42.42,0,0,1-.419-.419v-3.923a.42.42,0,0,1,.419-.419h3.923a.42.42,0,0,1,.419.419Z" transform="translate(-37.726 -113.532)" fill="#ed0f68"/>
      <path id="Path_89692" data-name="Path 89692" d="M135.379,166.035a3.068,3.068,0,0,0-3.065-3.065h-3.923a3.068,3.068,0,0,0-3.065,3.065v3.923a3.068,3.068,0,0,0,3.065,3.065h3.923a3.068,3.068,0,0,0,3.065-3.065Zm-2.646,3.923a.42.42,0,0,1-.419.419h-3.923a.42.42,0,0,1-.419-.419v-3.923a.42.42,0,0,1,.419-.419h3.923a.42.42,0,0,1,.419.419Z" transform="translate(-103.22 -113.532)" fill="#ed0f68"/>
      <path id="Path_89693" data-name="Path 89693" d="M207.912,162.97a3.068,3.068,0,0,0-3.065,3.065v3.923a3.068,3.068,0,0,0,3.065,3.065h3.923a3.068,3.068,0,0,0,3.065-3.065v-3.923a3.068,3.068,0,0,0-3.065-3.065Zm4.342,3.065v3.923a.42.42,0,0,1-.419.419h-3.923a.42.42,0,0,1-.419-.419v-3.923a.42.42,0,0,1,.419-.419h3.923A.42.42,0,0,1,212.254,166.035Z" transform="translate(-168.715 -113.532)" fill="#ed0f68"/>
      <path id="Path_89694" data-name="Path 89694" d="M287.433,162.97a3.068,3.068,0,0,0-3.065,3.065v3.923a3.068,3.068,0,0,0,3.065,3.065h3.923a3.068,3.068,0,0,0,3.065-3.065v-3.923a3.068,3.068,0,0,0-3.065-3.065Zm4.342,3.065v3.923a.42.42,0,0,1-.419.419h-3.923a.42.42,0,0,1-.419-.419v-3.923a.42.42,0,0,1,.419-.419h3.923A.42.42,0,0,1,291.775,166.035Z" transform="translate(-234.21 -113.532)" fill="#ed0f68"/>
      <path id="Path_89695" data-name="Path 89695" d="M366.955,162.97a3.068,3.068,0,0,0-3.065,3.065v3.923a3.068,3.068,0,0,0,3.065,3.065h3.923a3.068,3.068,0,0,0,3.065-3.065v-3.923a3.068,3.068,0,0,0-3.065-3.065Zm4.342,3.065v3.923a.42.42,0,0,1-.419.419h-3.923a.419.419,0,0,1-.419-.419v-3.923a.42.42,0,0,1,.419-.419h3.923A.42.42,0,0,1,371.3,166.035Z" transform="translate(-299.705 -113.532)" fill="#ed0f68"/>
      <path id="Path_89696" data-name="Path 89696" d="M55.858,241.8a3.068,3.068,0,0,0-3.065-3.065H48.87a3.068,3.068,0,0,0-3.065,3.065v3.923a3.068,3.068,0,0,0,3.065,3.065h3.923a3.068,3.068,0,0,0,3.065-3.065Zm-2.646,3.923a.42.42,0,0,1-.419.419H48.87a.42.42,0,0,1-.419-.419V241.8a.42.42,0,0,1,.419-.419h3.923a.42.42,0,0,1,.419.419Z" transform="translate(-37.726 -175.93)" fill="#ed0f68"/>
      <path id="Path_89697" data-name="Path 89697" d="M135.379,241.8a3.068,3.068,0,0,0-3.065-3.065h-3.923a3.068,3.068,0,0,0-3.065,3.065v3.923a3.068,3.068,0,0,0,3.065,3.065h3.923a3.068,3.068,0,0,0,3.065-3.065Zm-2.646,3.923a.42.42,0,0,1-.419.419h-3.923a.42.42,0,0,1-.419-.419V241.8a.42.42,0,0,1,.419-.419h3.923a.42.42,0,0,1,.419.419Z" transform="translate(-103.22 -175.93)" fill="#ed0f68"/>
      <path id="Path_89698" data-name="Path 89698" d="M214.9,241.8a3.068,3.068,0,0,0-3.065-3.065h-3.923a3.068,3.068,0,0,0-3.065,3.065v3.923a3.068,3.068,0,0,0,3.065,3.065h3.923a3.068,3.068,0,0,0,3.065-3.065Zm-2.646,3.923a.42.42,0,0,1-.419.419h-3.923a.42.42,0,0,1-.419-.419V241.8a.42.42,0,0,1,.419-.419h3.923a.42.42,0,0,1,.419.419Z" transform="translate(-168.715 -175.93)" fill="#ed0f68"/>
      <path id="Path_89699" data-name="Path 89699" d="M52.793,314.492H48.87a3.068,3.068,0,0,0-3.065,3.065v3.923a3.068,3.068,0,0,0,3.065,3.065h3.923a3.068,3.068,0,0,0,3.065-3.065v-3.923A3.068,3.068,0,0,0,52.793,314.492Zm.419,6.988a.42.42,0,0,1-.419.419H48.87a.42.42,0,0,1-.419-.419v-3.923a.42.42,0,0,1,.419-.419h3.923a.42.42,0,0,1,.419.419Z" transform="translate(-37.726 -238.328)" fill="#ed0f68"/>
      <path id="Path_89700" data-name="Path 89700" d="M132.314,314.492h-3.923a3.068,3.068,0,0,0-3.065,3.065v3.923a3.068,3.068,0,0,0,3.065,3.065h3.923a3.068,3.068,0,0,0,3.065-3.065v-3.923A3.068,3.068,0,0,0,132.314,314.492Zm.419,6.988a.42.42,0,0,1-.419.419h-3.923a.42.42,0,0,1-.419-.419v-3.923a.42.42,0,0,1,.419-.419h3.923a.42.42,0,0,1,.419.419Z" transform="translate(-103.22 -238.328)" fill="#ed0f68"/>
    </g>
  </g>
</svg>
