<svg xmlns="http://www.w3.org/2000/svg" width="92.332" height="92.333" viewBox="0 0 92.332 92.333">
  <g id="Group_20229" data-name="Group 20229" transform="translate(-1143.148 -4295.667)">
    <path id="Path_89642" data-name="Path 89642" d="M154.022,251.368l9.613-6.734,9.613,6.734a1.352,1.352,0,0,0,1.552-2.215l-9.812-6.874V231.672a1.353,1.353,0,1,0-2.705,0v10.608l-9.812,6.873a1.352,1.352,0,0,0,1.552,2.215Z" transform="translate(1018.646 4106.882)" fill="#94daec"/>
    <path id="Path_89643" data-name="Path 89643" d="M166.123,7.489A7.489,7.489,0,1,0,173.612,0,7.485,7.485,0,0,0,166.123,7.489Zm10.872-3.383a4.784,4.784,0,1,1-3.383-1.4A4.753,4.753,0,0,1,176.995,4.106Z" transform="translate(1006.983 4295.667)" fill="#94daec"/>
    <path id="Path_89644" data-name="Path 89644" d="M141.48,93.495h34.242a5.137,5.137,0,0,0,5.131-5.131,2.661,2.661,0,0,0-2.769-2.656,4.533,4.533,0,0,0,.4-1.855V81.39a1.353,1.353,0,1,0-2.705,0v2.462a1.858,1.858,0,0,1-1.855,1.855H159.294a1.858,1.858,0,0,1-1.855-1.855V72.617a1.858,1.858,0,0,1,1.855-1.855H173.92a1.858,1.858,0,0,1,1.855,1.855v2.462a1.353,1.353,0,1,0,2.705,0V72.617a4.566,4.566,0,0,0-4.561-4.561H159.294a4.566,4.566,0,0,0-4.561,4.561V73.2h-8.292a7.992,7.992,0,0,0-7.983,7.983v9.291A3.024,3.024,0,0,0,141.48,93.495Zm36.667-5.082a2.429,2.429,0,0,1-2.425,2.377h-18.23a2.429,2.429,0,0,1-2.425-2.377Zm-36.984-7.23a5.284,5.284,0,0,1,5.278-5.278h8.292v7.947a4.6,4.6,0,0,0,.395,1.855,2.662,2.662,0,0,0-2.767,2.656,5.157,5.157,0,0,0,.611,2.426h-6.037V83.347a1.353,1.353,0,1,0-2.705,0v7.442H141.48a.317.317,0,0,1-.316-.316V81.182Z" transform="translate(1029.658 4239.883)" fill="#94daec"/>
    <path id="Path_89645" data-name="Path 89645" d="M29.858,305.055a7.489,7.489,0,1,0,12.784,5.3,7.44,7.44,0,0,0-12.784-5.3Zm10.08,5.3a4.784,4.784,0,1,1-4.784-4.782A4.781,4.781,0,0,1,39.938,310.35Z" transform="translate(1120.473 4047.426)" fill="#94daec"/>
    <path id="Path_89646" data-name="Path 89646" d="M3.021,396.375H37.263a5.137,5.137,0,0,0,5.131-5.131,2.659,2.659,0,0,0-2.656-2.656h-.112a4.533,4.533,0,0,0,.4-1.855V375.5a4.566,4.566,0,0,0-4.561-4.561H20.835a4.566,4.566,0,0,0-4.561,4.561v.583H7.983A7.992,7.992,0,0,0,0,384.063v9.291a3.025,3.025,0,0,0,3.021,3.021Zm15.958-18.91V375.5a1.857,1.857,0,0,1,1.855-1.855H35.461a1.857,1.857,0,0,1,1.855,1.855v11.235a1.857,1.857,0,0,1-1.855,1.855H20.835a1.857,1.857,0,0,1-1.855-1.855Zm20.709,13.828a2.429,2.429,0,0,1-2.425,2.377H19.033a2.429,2.429,0,0,1-2.426-2.377Zm-36.984-7.23a5.284,5.284,0,0,1,5.278-5.278h8.292v7.947a4.606,4.606,0,0,0,.395,1.855,2.662,2.662,0,0,0-2.767,2.656,5.155,5.155,0,0,0,.611,2.426H8.475v-7.443a1.353,1.353,0,0,0-2.705,0v7.443H3.021a.317.317,0,0,1-.316-.316Z" transform="translate(1143.148 3991.624)" fill="#94daec"/>
    <path id="Path_89647" data-name="Path 89647" d="M304.58,310.347a7.488,7.488,0,1,0,12.785-5.3h0A7.5,7.5,0,0,0,304.58,310.347Zm10.872,3.383a4.782,4.782,0,1,1,0-6.766A4.79,4.79,0,0,1,315.452,313.73Z" transform="translate(893.495 4047.429)" fill="#94daec"/>
    <path id="Path_89648" data-name="Path 89648" d="M283.04,117a1.353,1.353,0,1,0,0,2.705h1.932a1.353,1.353,0,1,0,0-2.705Z" transform="translate(912.26 4199.769)" fill="#94daec"/>
    <path id="Path_89649" data-name="Path 89649" d="M423.429,419.877H421.5a1.353,1.353,0,1,0,0,2.705h1.932a1.353,1.353,0,1,0,0-2.705Z" transform="translate(798.771 3951.509)" fill="#94daec"/>
    <path id="Path_89650" data-name="Path 89650" d="M147.89,422.582h1.932a1.353,1.353,0,1,0,0-2.705H147.89a1.353,1.353,0,0,0,0,2.705Z" transform="translate(1023.037 3951.509)" fill="#94daec"/>
    <path id="Path_89651" data-name="Path 89651" d="M314.179,393.67H308.22a1.353,1.353,0,1,0,0,2.705h5.959a5.137,5.137,0,0,0,5.131-5.131,2.66,2.66,0,0,0-2.769-2.656,4.533,4.533,0,0,0,.4-1.855V375.5a4.566,4.566,0,0,0-4.561-4.561H297.751a4.566,4.566,0,0,0-4.561,4.561v.583H284.9a7.992,7.992,0,0,0-7.983,7.983v9.291a3.025,3.025,0,0,0,3.021,3.021h21.971a1.353,1.353,0,1,0,0-2.705h-5.959a2.429,2.429,0,0,1-2.426-2.377H316.6A2.429,2.429,0,0,1,314.179,393.67Zm-23.361-2.426a5.158,5.158,0,0,0,.611,2.426h-6.037v-7.443a1.353,1.353,0,0,0-2.705,0v7.443h-2.749a.317.317,0,0,1-.316-.316v-9.291a5.284,5.284,0,0,1,5.278-5.278h8.292v7.947a4.593,4.593,0,0,0,.395,1.855A2.662,2.662,0,0,0,290.818,391.244Zm23.415-4.512a1.857,1.857,0,0,1-1.855,1.855H297.751a1.857,1.857,0,0,1-1.855-1.855V375.5a1.857,1.857,0,0,1,1.855-1.855h14.626a1.857,1.857,0,0,1,1.855,1.855Z" transform="translate(916.17 3991.624)" fill="#94daec"/>
  </g>
</svg>
