<svg xmlns="http://www.w3.org/2000/svg" width="78.898" height="87.481" viewBox="0 0 78.898 87.481">
  <g id="Group_20227" data-name="Group 20227" transform="translate(-1148.101 -3842.519)">
    <path id="Path_89606" data-name="Path 89606" d="M39.522,14.641V9.411A9.434,9.434,0,0,1,48.928,0H81.635a9.443,9.443,0,0,1,9.411,9.411v9.532a1.281,1.281,0,1,1-2.562,0V9.411a6.879,6.879,0,0,0-6.848-6.849h-.644v3.7a4.358,4.358,0,0,1-4.349,4.349H53.921a4.358,4.358,0,0,1-4.349-4.349v-3.7h-.644a6.871,6.871,0,0,0-6.844,6.849v5.231H59.166a4.39,4.39,0,0,1,4.378,4.378v4.81a1.281,1.281,0,1,1-2.562,0V19.02a1.827,1.827,0,0,0-1.816-1.811H29.5A1.827,1.827,0,0,0,27.68,19.02V34.446A1.836,1.836,0,0,0,29.5,36.262H46.991a1.278,1.278,0,0,1,1.279,1.279v4.63L53.8,36.64a1.292,1.292,0,0,1,.915-.378h4.456a1.836,1.836,0,0,0,1.816-1.816V29.637a1.281,1.281,0,1,1,2.562,0v4.809a4.382,4.382,0,0,1-4.379,4.379H55.238L47.9,46.167a1.283,1.283,0,0,1-2.189-.906V38.825H42.084V51.582a1.281,1.281,0,1,1-2.562,0V38.825H29.5a4.382,4.382,0,0,1-4.378-4.379V19.02A4.39,4.39,0,0,1,29.5,14.641Zm34.93,31.467a1.281,1.281,0,0,1,0-2.562h20.7a1.281,1.281,0,1,1,0,2.562Zm0,6.621a1.281,1.281,0,0,1,0-2.562H84.8a1.281,1.281,0,1,1,0,2.562ZM33.981,24.706a1.281,1.281,0,1,1,0-2.562h20.7a1.281,1.281,0,1,1,0,2.562Zm0,6.621a1.281,1.281,0,1,1,0-2.562h20.7a1.281,1.281,0,1,1,0,2.562Zm34.17,13.91a1.281,1.281,0,1,1-2.562,0V40.428a4.391,4.391,0,0,1,4.378-4.379H88.483V24.75a1.281,1.281,0,1,1,2.562,0v11.3h8.592a4.382,4.382,0,0,1,4.378,4.379V55.849a4.382,4.382,0,0,1-4.378,4.378H91.045V78.075a9.434,9.434,0,0,1-9.411,9.406H48.928a9.426,9.426,0,0,1-9.406-9.406V57.389a1.281,1.281,0,1,1,2.562,0V71.571h46.4V60.227H84.875v6.442a1.284,1.284,0,0,1-2.194.9l-7.338-7.343H69.967a4.39,4.39,0,0,1-4.378-4.378v-4.8a1.281,1.281,0,1,1,2.562,0v4.8a1.827,1.827,0,0,0,1.816,1.816h5.9a1.265,1.265,0,0,1,.906.378l5.536,5.531V58.949a1.282,1.282,0,0,1,1.279-1.284H99.637a1.819,1.819,0,0,0,1.816-1.816V40.427a1.827,1.827,0,0,0-1.816-1.816H69.967a1.786,1.786,0,0,0-1.279.538,1.8,1.8,0,0,0-.538,1.279Zm-8.544,35.57a1.281,1.281,0,0,1,0-2.562H70.955a1.281,1.281,0,0,1,0,2.562ZM78.428,2.562H52.134v3.7A1.8,1.8,0,0,0,53.921,8.05h22.72a1.8,1.8,0,0,0,1.787-1.787ZM88.483,74.133h-46.4v3.942a6.863,6.863,0,0,0,6.844,6.844H81.635a6.871,6.871,0,0,0,6.848-6.844Z" transform="translate(1122.983 3842.519)" fill="#94daec"/>
  </g>
</svg>
