<svg xmlns="http://www.w3.org/2000/svg" width="78.481" height="78.481" viewBox="0 0 78.481 78.481">
  <g id="Group_20228" data-name="Group 20228" transform="translate(-651.519 -4081.519)">
    <g id="XMLID_1_" transform="translate(651.519 4081.519)">
      <path id="Path_89629" data-name="Path 89629" d="M18.27,16.635v13.08a1.545,1.545,0,0,0-1.635-1.635H15V16.635A1.545,1.545,0,0,1,16.635,15,1.545,1.545,0,0,1,18.27,16.635Z" transform="translate(34.051 34.051)" fill="#94daec"/>
      <path id="Path_89630" data-name="Path 89630" d="M16.635,19a1.635,1.635,0,1,1,0,3.27H15V19Z" transform="translate(34.051 43.131)" fill="#94daec"/>
      <path id="Path_89631" data-name="Path 89631" d="M22.945,19v3.27H11.5a1.545,1.545,0,0,0,1.635-1.635V19Z" transform="translate(26.106 43.131)" fill="#94daec"/>
      <path id="Path_89632" data-name="Path 89632" d="M47.971,25.928v-15.7l-7.194,5.886c-.327.327-1.308.327-1.635.327a1.8,1.8,0,0,1-.981-1.635V9.905A1.545,1.545,0,0,0,36.525,8.27H16.905A1.545,1.545,0,0,0,15.27,9.905v16.35a1.545,1.545,0,0,0,1.635,1.635h19.62a1.545,1.545,0,0,0,1.635-1.635V21.35c0-.654.327-1.308.981-1.308.654-.327,1.308-.327,1.635.327Zm-6.54.327a5.029,5.029,0,0,1-4.905,4.905H16.905A5.029,5.029,0,0,1,12,26.255V9.905A5.029,5.029,0,0,1,16.905,5h19.62a5.029,5.029,0,0,1,4.905,4.905v1.308l7.194-5.886a1.46,1.46,0,0,1,1.635,0c.654,0,.981.654.981,1.308v22.89c0,.654-.327,1.308-.981,1.308-.327,0-.327.327-.654.327a1.2,1.2,0,0,1-.981-.327l-7.194-5.886Z" transform="translate(27.241 11.35)" fill="#94daec"/>
      <path id="Path_89633" data-name="Path 89633" d="M11,20.635V19h3.27v1.635a1.545,1.545,0,0,1-1.635,1.635A1.545,1.545,0,0,1,11,20.635Z" transform="translate(24.971 43.131)" fill="#94daec"/>
      <path id="Path_89634" data-name="Path 89634" d="M27.39,22.27H4.5a1.545,1.545,0,0,0,1.635-1.635V19h19.62v1.635A1.545,1.545,0,0,0,27.39,22.27Z" transform="translate(10.215 43.131)" fill="#94daec"/>
      <path id="Path_89635" data-name="Path 89635" d="M6,17.54a6.54,6.54,0,1,1,6.54,6.54A6.559,6.559,0,0,1,6,17.54Zm9.81,0a3.089,3.089,0,0,0-3.27-3.27,3.089,3.089,0,0,0-3.27,3.27,3.089,3.089,0,0,0,3.27,3.27A3.089,3.089,0,0,0,15.81,17.54Z" transform="translate(13.62 24.971)" fill="#94daec"/>
      <path id="Path_89636" data-name="Path 89636" d="M7.27,19v1.635A1.545,1.545,0,0,1,5.635,22.27,1.545,1.545,0,0,1,4,20.635V19Z" transform="translate(9.08 43.131)" fill="#94daec"/>
      <path id="Path_89637" data-name="Path 89637" d="M4,24.175A8.1,8.1,0,0,1,12.175,16h9.81a8.1,8.1,0,0,1,8.175,8.175V25.81H26.89V24.175a5.029,5.029,0,0,0-4.905-4.905h-9.81A5.029,5.029,0,0,0,7.27,24.175V25.81H4Z" transform="translate(9.08 36.321)" fill="#94daec"/>
      <path id="Path_89638" data-name="Path 89638" d="M1,22.27V19h9.81v1.635a1.545,1.545,0,0,0,1.635,1.635Z" transform="translate(2.27 43.131)" fill="#94daec"/>
      <path id="Path_89639" data-name="Path 89639" d="M3.27,19v3.27H1.635a1.635,1.635,0,1,1,0-3.27Z" transform="translate(0 43.131)" fill="#94daec"/>
      <path id="Path_89640" data-name="Path 89640" d="M0,8.175A8.1,8.1,0,0,1,8.175,0H44.146a8.1,8.1,0,0,1,8.175,8.175,1.635,1.635,0,0,1-3.27,0A5.029,5.029,0,0,0,44.146,3.27H8.175A5.029,5.029,0,0,0,3.27,8.175V62.131H1.635A1.545,1.545,0,0,0,0,63.766Z" fill="#94daec"/>
      <path id="Path_89641" data-name="Path 89641" d="M49.051,21.135h1.635A1.545,1.545,0,0,0,52.321,19.5v6.54a8.1,8.1,0,0,1-8.175,8.175H8.175A8.1,8.1,0,0,1,0,26.04V19.5a1.545,1.545,0,0,0,1.635,1.635H3.27V26.04a5.029,5.029,0,0,0,4.905,4.905H44.146a5.029,5.029,0,0,0,4.905-4.905Z" transform="translate(0 44.266)" fill="#94daec"/>
    </g>
  </g>
</svg>
