<svg xmlns="http://www.w3.org/2000/svg" width="20" height="18" viewBox="0 0 20 18">
  <g id="Group_20291" data-name="Group 20291" transform="translate(-343 -634)">
    <g id="Message" transform="translate(343 634)">
      <path id="Path_89682" data-name="Path 89682" d="M14.2,0A5.842,5.842,0,0,1,20,5.846h0V7.307l-.007.1a.709.709,0,0,1-.7.616h0L19.284,8l-.111-.009a.706.706,0,0,1-.389-.2.716.716,0,0,1-.207-.5h0V5.846A4.439,4.439,0,0,0,14.2,1.435H5.8A4.439,4.439,0,0,0,1.424,5.846h0v6.309A4.439,4.439,0,0,0,5.8,16.565H14.2a4.439,4.439,0,0,0,4.379-4.411.716.716,0,0,1,1.424,0A5.842,5.842,0,0,1,14.2,18H5.8A5.833,5.833,0,0,1,0,12.155H0V5.846A5.824,5.824,0,0,1,5.8,0H14.2Zm-9.9,5.387a.7.7,0,0,1,.518.156h0L8.969,8.857a1.425,1.425,0,0,0,1.769,0h0l4.113-3.315h.009l.087-.06a.711.711,0,0,1,.8,1.174h0L11.632,9.98a2.841,2.841,0,0,1-3.582,0h0L3.927,6.656l-.076-.073a.726.726,0,0,1-.03-.934A.7.7,0,0,1,4.294,5.387Z" fill="#e0e0e0"/>
    </g>
  </g>
</svg>
