<svg xmlns="http://www.w3.org/2000/svg" width="67.419" height="50.746" viewBox="0 0 67.419 50.746">
  <path id="Path_70841" data-name="Path 70841" d="M64.657,69.758H61.495V67.13a3.783,3.783,0,0,0-3.778-3.778H54.7a3.783,3.783,0,0,0-3.778,3.778V77.949H45.873v-2.9a3.819,3.819,0,0,0-6.044-3.108,3.821,3.821,0,0,0-6.793-.207,3.813,3.813,0,0,0-5.515.921,3.82,3.82,0,0,0-6.308,2.9v2.4H16.5V75.163a.987.987,0,0,0-1.974,0V98.09a1.807,1.807,0,0,1-1.8,1.8H9.7a1.806,1.806,0,0,1-1.8-1.8V67.13a1.807,1.807,0,0,1,1.8-1.8h3.014a1.807,1.807,0,0,1,1.8,1.8v3.826a.987.987,0,1,0,1.974,0V67.13a3.783,3.783,0,0,0-3.778-3.778H9.7A3.783,3.783,0,0,0,5.924,67.13v2.628H2.762A2.765,2.765,0,0,0,0,72.52V92.7a2.765,2.765,0,0,0,2.762,2.762H5.924V98.09A3.783,3.783,0,0,0,9.7,101.868h3.014a3.783,3.783,0,0,0,3.778-3.778V87.272h3.382v1.8a4.017,4.017,0,0,0,.912,2.546l3.065,3.726v17.765a.987.987,0,1,0,1.974,0V94.992a.987.987,0,0,0-.225-.627l-3.29-4a2.038,2.038,0,0,1-.463-1.292v-1.8l18.664.114a.987.987,0,1,0,0-1.974h-4.49a1.68,1.68,0,1,1,0-3.36H44.51a1.059,1.059,0,0,1,1.057,1.057v5.965a2.038,2.038,0,0,1-.463,1.292l-3.29,4a.987.987,0,0,0-.225.627v2.6a.987.987,0,0,0,1.974,0V95.346l3.065-3.726a4.018,4.018,0,0,0,.912-2.546v-1.8h3.382V98.09a3.783,3.783,0,0,0,3.778,3.778h3.014a3.783,3.783,0,0,0,3.778-3.778V95.462h3.162A2.765,2.765,0,0,0,67.419,92.7V72.52A2.764,2.764,0,0,0,64.657,69.758Zm-61.9,23.73a.789.789,0,0,1-.788-.788V72.52a.789.789,0,0,1,.788-.788H5.924V93.488ZM42.051,73.2A1.851,1.851,0,0,1,43.9,75.044v3.674a1.847,1.847,0,0,1-.6,1.359H40.8a1.847,1.847,0,0,1-.6-1.359V75.044A1.851,1.851,0,0,1,42.051,73.2Zm-7.52.386a1.849,1.849,0,0,1,3.7,0v5.138a1.847,1.847,0,0,1-.6,1.359h-1.6a3.649,3.649,0,0,0-.793.088,1.839,1.839,0,0,1-.7-1.447V73.581Zm-5.672,1.176a1.849,1.849,0,0,1,3.7,0v3.962a1.849,1.849,0,1,1-3.7,0Zm-5.672.795a1.849,1.849,0,1,1,3.7,0v3.167a1.849,1.849,0,1,1-3.7,0ZM16.5,79.923h4.913a3.82,3.82,0,0,0,6.464,1.356,3.808,3.808,0,0,0,5.024.569,3.647,3.647,0,0,0-.171,3.45H16.5ZM47.542,85.3V83.109a3.036,3.036,0,0,0-1.995-2.849q.073-.166.13-.338h5.247V85.3Zm17.9,7.4a.789.789,0,0,1-.788.788H61.495V90.636a.987.987,0,0,0-1.974,0V98.09a1.807,1.807,0,0,1-1.8,1.8H54.7a1.806,1.806,0,0,1-1.8-1.8V67.13a1.807,1.807,0,0,1,1.8-1.8h3.014a1.807,1.807,0,0,1,1.8,1.8v19.3a.987.987,0,0,0,1.974,0v-14.7h3.162a.789.789,0,0,1,.788.788Z" transform="translate(0 -63.352)" fill="#ed1068"/>
</svg>
