<svg xmlns="http://www.w3.org/2000/svg" width="76.182" height="76.182" viewBox="0 0 76.182 76.182">
  <g id="Group_20213" data-name="Group 20213" transform="translate(-193.667 -1131.667)">
    <path id="Path_447" data-name="Path 447" d="M92,2.232h23.51A1.57,1.57,0,0,1,117.077,3.8V23.618a1.116,1.116,0,0,0,2.232,0V3.8a3.8,3.8,0,0,0-3.8-3.8H92a1.116,1.116,0,1,0,0,2.232Z" transform="translate(116.307 1131.667)" fill="#ed0f68"/>
    <path id="Path_448" data-name="Path 448" d="M38.148,32.621a3.8,3.8,0,0,0,3.8-3.8,1.116,1.116,0,1,0-2.232,0,1.57,1.57,0,0,1-1.569,1.569H15.987a1.116,1.116,0,0,0-.633.2L7.538,35.971V31.505a1.116,1.116,0,0,0-1.116-1.116H3.8a1.57,1.57,0,0,1-1.568-1.569V3.8A1.57,1.57,0,0,1,3.8,2.232H9.389A1.116,1.116,0,1,0,9.389,0H3.8A3.8,3.8,0,0,0,0,3.8v25.02a3.8,3.8,0,0,0,3.8,3.8H5.306v5.474a1.116,1.116,0,0,0,1.749.919l9.279-6.392Z" transform="translate(193.667 1131.667)" fill="#ed0f68"/>
    <path id="Path_449" data-name="Path 449" d="M40.939,104.781H65.828a1.116,1.116,0,0,0,0-2.232H40.939a1.116,1.116,0,0,0,0,2.232Z" transform="translate(159.77 1044.376)" fill="#ed0f68"/>
    <path id="Path_450" data-name="Path 450" d="M68.805,71.083H40.939a1.116,1.116,0,1,0,0,2.232H68.8a1.116,1.116,0,0,0,0-2.232Z" transform="translate(159.77 1071.16)" fill="#ed0f68"/>
    <path id="Path_451" data-name="Path 451" d="M69.921,134.521a1.116,1.116,0,0,0-1.116-1.116H40.939a1.116,1.116,0,1,0,0,2.232H68.8A1.116,1.116,0,0,0,69.921,134.521Z" transform="translate(159.77 1018.111)" fill="#ed0f68"/>
    <path id="Path_452" data-name="Path 452" d="M40.939,164.263a1.116,1.116,0,1,0,0,2.232H65.927a1.116,1.116,0,1,0,0-2.232Z" transform="translate(159.77 991.845)" fill="#ed0f68"/>
    <path id="Path_453" data-name="Path 453" d="M193.3,39.616h-6.1a1.116,1.116,0,1,0,0,2.232h6.1a1.116,1.116,0,1,0,0-2.232Z" transform="translate(35.271 1097.945)" fill="#ed0f68"/>
    <path id="Path_454" data-name="Path 454" d="M40.939,41.848H57.476a1.116,1.116,0,1,0,0-2.232H40.939a1.116,1.116,0,0,0,0,2.232Z" transform="translate(159.77 1097.945)" fill="#ed0f68"/>
    <path id="Path_455" data-name="Path 455" d="M314.26,117.941a1.116,1.116,0,0,0,1.578-1.578l-.647-.647H321.3v6.113l-.646-.646a1.116,1.116,0,1,0-1.578,1.578l2.551,2.551a1.116,1.116,0,0,0,1.578,0l2.551-2.551a1.116,1.116,0,1,0-1.578-1.578l-.646.646V114.6a1.116,1.116,0,0,0-1.116-1.116h-7.229l.646-.647a1.116,1.116,0,1,0-1.578-1.578l-2.551,2.551a1.116,1.116,0,0,0,0,1.578Z" transform="translate(-71.384 1037.24)" fill="#ed0f68"/>
    <path id="Path_456" data-name="Path 456" d="M113.283,256.306a1.116,1.116,0,0,0-1.578,1.578l.646.647h-6.113v-6.113l.646.646a1.116,1.116,0,0,0,1.578-1.578l-2.551-2.551a1.116,1.116,0,0,0-1.578,0l-2.551,2.551a1.116,1.116,0,0,0,1.578,1.578l.646-.646v7.229a1.116,1.116,0,0,0,1.116,1.116h7.229l-.646.646a1.116,1.116,0,0,0,1.578,1.578l2.551-2.551a1.116,1.116,0,0,0,0-1.578Z" transform="translate(107.308 920.051)" fill="#ed0f68"/>
    <path id="Path_457" data-name="Path 457" d="M230.072,252.277v19.817a1.116,1.116,0,0,0,2.232,0V252.277a1.571,1.571,0,0,1,1.568-1.569h23.51a1.116,1.116,0,1,0,0-2.232h-23.51A3.8,3.8,0,0,0,230.072,252.277Z" transform="translate(-2.172 920.162)" fill="#ed0f68"/>
    <path id="Path_458" data-name="Path 458" d="M268.221,248.476h-5.589a1.116,1.116,0,1,0,0,2.232h5.589a1.571,1.571,0,0,1,1.569,1.569V277.3a1.571,1.571,0,0,1-1.569,1.569H265.6a1.116,1.116,0,0,0-1.116,1.116v4.466l-7.816-5.385a1.117,1.117,0,0,0-.633-.2H233.873A1.57,1.57,0,0,1,232.3,277.3a1.116,1.116,0,1,0-2.232,0,3.8,3.8,0,0,0,3.8,3.8h21.814l9.279,6.392a1.116,1.116,0,0,0,1.749-.919V281.1h1.505a3.8,3.8,0,0,0,3.8-3.8v-25.02a3.8,3.8,0,0,0-3.8-3.8Z" transform="translate(-2.173 920.162)" fill="#ed0f68"/>
    <path id="Path_459" data-name="Path 459" d="M318.8,296.438a1.116,1.116,0,0,0-1.116-1.116h-6.148a1.116,1.116,0,0,0-1.116,1.116v4.08h-4.082a1.116,1.116,0,0,0-1.116,1.116v6.127a1.116,1.116,0,0,0,1.116,1.116h4.082v4.08a1.116,1.116,0,0,0,1.116,1.116h6.148a1.116,1.116,0,0,0,1.116-1.116v-4.08h4.115a1.116,1.116,0,0,0,1.116-1.116v-6.127a1.116,1.116,0,0,0-1.116-1.116H318.8Zm3,6.312v3.895h-4.115a1.116,1.116,0,0,0-1.116,1.116v4.08h-3.916v-4.08a1.116,1.116,0,0,0-1.116-1.116H307.45V302.75h4.082a1.116,1.116,0,0,0,1.116-1.116v-4.08h3.916v4.08a1.116,1.116,0,0,0,1.116,1.116Z" transform="translate(-66.137 880.287)" fill="#ed0f68"/>
  </g>
</svg>
