<svg xmlns="http://www.w3.org/2000/svg" width="22.302" height="22.344" viewBox="0 0 22.302 22.344">
  <g id="Group_20230" data-name="Group 20230" transform="translate(-704.25 -8532.088)">
    <path id="phone" d="M22.912,17.6v3.138a2.092,2.092,0,0,1-2.28,2.092,20.7,20.7,0,0,1-9.026-3.211,20.394,20.394,0,0,1-6.275-6.275A20.7,20.7,0,0,1,2.12,4.28,2.092,2.092,0,0,1,4.2,2H7.339A2.092,2.092,0,0,1,9.431,3.8a13.429,13.429,0,0,0,.732,2.939,2.092,2.092,0,0,1-.471,2.207L8.364,10.273a16.734,16.734,0,0,0,6.275,6.275l1.328-1.328a2.092,2.092,0,0,1,2.207-.471,13.429,13.429,0,0,0,2.939.732,2.092,2.092,0,0,1,1.8,2.123Z" transform="translate(702.889 8530.838)" fill="none" stroke="#94daec" stroke-linecap="round" stroke-linejoin="round" stroke-width="1.5"/>
  </g>
</svg>
