<svg xmlns="http://www.w3.org/2000/svg" width="26.037" height="19.553" viewBox="0 0 26.037 19.553">
  <g id="Group_20231" data-name="Group 20231" transform="translate(-1040.788 -8533.95)">
    <path id="envelope_2_" data-name="envelope(2)" d="M23.505,59.882H2.432A2.434,2.434,0,0,0,0,62.314V76.9a2.434,2.434,0,0,0,2.432,2.432H23.505A2.434,2.434,0,0,0,25.937,76.9V62.314A2.434,2.434,0,0,0,23.505,59.882Zm0,1.621a.806.806,0,0,1,.311.063l-10.848,9.4-10.848-9.4a.807.807,0,0,1,.311-.063Zm0,16.211H2.432a.811.811,0,0,1-.811-.811V63.278l10.816,9.374a.812.812,0,0,0,1.062,0l10.816-9.374V76.9A.811.811,0,0,1,23.505,77.714Z" transform="translate(1040.838 8474.118)" fill="#94daec" stroke="#c7c7c7" stroke-width="0.1"/>
  </g>
</svg>
