<svg xmlns="http://www.w3.org/2000/svg" width="163" height="102" viewBox="0 0 163 102"><g transform="translate(-866 -7388)"><path d="M246.528,70.4a45.133,45.133,0,0,0-28.992-10.046,47.418,47.418,0,0,0-20.009,4.358,1.475,1.475,0,1,0,1.252,2.67A44.452,44.452,0,0,1,217.537,63.3c21.057,0,38.189,14.2,38.189,31.654a26.659,26.659,0,0,1-.279,3.842,1.475,1.475,0,1,0,2.918.426,29.628,29.628,0,0,0,.31-4.268C258.675,85.663,254.361,76.942,246.528,70.4Z" transform="translate(735.992 7337.646)" fill="#94daec"/><path d="M97.949,132.344a1.475,1.475,0,0,0-1.894.873,31.727,31.727,0,0,1-11.2,14.42,1.474,1.474,0,0,0-.628,1.865L89.1,160.826c.31.914-.045,1.827-1.053,1.814A46.524,46.524,0,0,1,71.8,157a45.744,45.744,0,0,0,6.469-2.227,1.475,1.475,0,0,0-1.167-2.709,44.143,44.143,0,0,1-17.576,3.548c-21.058,0-38.189-14.2-38.189-31.654,0-9.708,5.272-18.747,14.464-24.8a1.475,1.475,0,1,0-1.622-2.463,35.76,35.76,0,0,0-12.869,14.4,31.164,31.164,0,0,0-15,8.808A22.936,22.936,0,0,0,0,135.537c0,7.093,3.474,13.838,9.574,18.67l-3.086,7.184c-1.1,2.3.934,5.323,3.5,4.846a34.678,34.678,0,0,0,14.512-5.57,36.153,36.153,0,0,0,5.869.479,1.475,1.475,0,1,0,0-2.949,33.127,33.127,0,0,1-5.976-.542,1.479,1.479,0,0,0-1.2.307,30.937,30.937,0,0,1-13.661,5.362c-.276.037-.5-.44-.338-.768l3.543-8.25a1.471,1.471,0,0,0-.573-1.828c-5.86-4.3-9.219-10.474-9.219-16.941a20.036,20.036,0,0,1,5.537-13.645A27.679,27.679,0,0,1,19.906,114.6a29.7,29.7,0,0,0-1.516,9.359c0,9.294,4.314,18.015,12.147,24.557a42.157,42.157,0,0,0,12.444,7.145A30.98,30.98,0,0,1,36,157.717a1.475,1.475,0,0,0,.5,2.906,33.342,33.342,0,0,0,10.542-3.679,48.5,48.5,0,0,0,12.482,1.615,49.028,49.028,0,0,0,8.2-.683,46.584,46.584,0,0,0,19.864,7.678,3.851,3.851,0,0,0,3.665-1.494,4.366,4.366,0,0,0,.551-4.4l-4.4-10.25a34.421,34.421,0,0,0,11.419-15.174A1.475,1.475,0,0,0,97.949,132.344Z" transform="translate(894 7308.646)" fill="#94daec"/><path d="M358.674,205.076l1.4-5.038h7.251l1.4,5.038a1.475,1.475,0,0,0,2.841-.792l-4.962-17.807a3.02,3.02,0,0,0-5.818,0l-4.962,17.806A1.475,1.475,0,0,0,358.674,205.076Zm4.962-17.806a.176.176,0,0,1,.016-.041.135.135,0,0,1,.1,0,.136.136,0,0,1,.017.042l2.736,9.819H360.9Z" transform="translate(608.171 7238.095)" fill="#94daec"/><path d="M191.432,190.852a6.625,6.625,0,1,0-13.251,0V199.5a6.62,6.62,0,0,0,10.768,5.165l1.033,1.03a1.475,1.475,0,1,0,2.083-2.088l-1.272-1.269a6.586,6.586,0,0,0,.64-2.838v-8.652Zm-4.111,8.03a1.475,1.475,0,0,0-2.083,2.088l1.6,1.6a3.673,3.673,0,0,1-5.708-3.061v-8.652a3.676,3.676,0,1,1,7.352,0V199.5a3.673,3.673,0,0,1-.038.5Z" transform="translate(750.853 7238.128)" fill="#94daec"/><path d="M269.624,202.581a4.48,4.48,0,0,0,3.9,3.546,5.066,5.066,0,0,0,.589.035c2.035,0,4-1.242,5.568-3.47l1.688,2.729a1.475,1.475,0,0,0,2.508-1.552l-2.57-4.154c.739-1.551,1.63-3.318,1.641-3.339a1.475,1.475,0,1,0-2.633-1.329c-.027.054-.391.776-.845,1.7l-1.747-2.824c.268-.308.579-.679.891-1.084,1.276-1.655,1.871-2.929,1.871-4.009a4.6,4.6,0,1,0-9.206,0c0,1.079.595,2.353,1.871,4.009.237.307.473.595.69.85C272.091,195.508,268.963,199.307,269.624,202.581Zm6.256-15.406a1.655,1.655,0,0,1,1.653,1.653,7.388,7.388,0,0,1-1.653,2.712,7.388,7.388,0,0,1-1.654-2.711A1.655,1.655,0,0,1,275.879,187.175Zm-.27,8.941,2.335,3.775c-1.393,2.613-2.992,3.435-4.079,3.308a1.518,1.518,0,0,1-1.35-1.2C272.2,200.415,274.025,197.861,275.609,196.115Z" transform="translate(677.461 7238.13)" fill="#94daec"/><circle cx="3" cy="3" r="3" transform="translate(916 7484)" fill="#94daec"/><g transform="translate(1009 7388)" fill="#fff" stroke="#94daec" stroke-width="1" stroke-dasharray="4"><circle cx="10" cy="10" r="10" stroke="none"/><circle cx="10" cy="10" r="9.5" fill="none"/></g><g transform="translate(866 7412)" fill="#fff" stroke="#94daec" stroke-width="0.8"><circle cx="6" cy="6" r="6" stroke="none"/><circle cx="6" cy="6" r="5.6" fill="none"/></g></g></svg>