<svg xmlns="http://www.w3.org/2000/svg" width="19.286" height="19.286" viewBox="0 0 19.286 19.286">
  <g id="Group_20231" data-name="Group 20231" transform="translate(-1195.514 -8633.131)">
    <g id="instagram-sketched" transform="translate(1195.514 8633.131)">
      <path id="Path_70383" data-name="Path 70383" d="M3.817,19.286H15.469a3.821,3.821,0,0,0,3.817-3.817V3.817A3.821,3.821,0,0,0,15.469,0H3.817A3.821,3.821,0,0,0,0,3.817V15.469A3.821,3.821,0,0,0,3.817,19.286ZM1.205,3.817A2.615,2.615,0,0,1,3.817,1.205H15.469a2.615,2.615,0,0,1,2.612,2.612V15.469a2.615,2.615,0,0,1-2.612,2.612H3.817a2.615,2.615,0,0,1-2.612-2.612Z" fill="#ed0f68"/>
      <path id="Path_70384" data-name="Path 70384" d="M10.8,15.722A4.926,4.926,0,1,0,5.87,10.8,4.932,4.932,0,0,0,10.8,15.722Zm0-8.647A3.721,3.721,0,1,1,7.075,10.8,3.725,3.725,0,0,1,10.8,7.075Z" transform="translate(-1.153 -1.153)" fill="#ed0f68"/>
      <path id="Path_70385" data-name="Path 70385" d="M18.019,6.686A1.356,1.356,0,0,0,19.408,5.3a1.389,1.389,0,0,0-2.778,0,1.353,1.353,0,0,0,1.389,1.383Zm.142-1.516c.254.224-.325.5-.325.133C17.835,5.087,18.13,5.143,18.161,5.17Z" transform="translate(-3.266 -0.77)" fill="#ed0f68"/>
    </g>
  </g>
</svg>
