<svg xmlns="http://www.w3.org/2000/svg" width="36.577" height="45.044" viewBox="0 0 36.577 45.044">
  <g id="Group_7565" data-name="Group 7565" transform="translate(-381.423 -422.5)">
    <path id="Path_432" data-name="Path 432" d="M262.313,7.137A10.121,10.121,0,0,0,264.705.649a.67.67,0,0,0-.774-.641,10.386,10.386,0,0,0-5.915,3.345,9.736,9.736,0,0,0-2.444,6.355.664.664,0,0,0,.678.637,8.611,8.611,0,0,0,6.063-3.207" transform="translate(144.106 422.5)" fill="#d6d6d8"/>
    <path id="Path_433" data-name="Path 433" d="M257.386,9.708C257.247,6,260.042,1.674,264.58.278a.676.676,0,0,0-.649-.27,10.387,10.387,0,0,0-5.915,3.345,9.736,9.736,0,0,0-2.444,6.355.664.664,0,0,0,.678.637,6.6,6.6,0,0,0,1.342-.181A.661.661,0,0,1,257.386,9.708Z" transform="translate(144.105 422.5)" fill="#c2c2c4"/>
    <path id="Path_434" data-name="Path 434" d="M84.328,144.92a9.889,9.889,0,0,1-5.534-8.889,10.054,10.054,0,0,1,4.309-8.21.669.669,0,0,0,.142-.955,9.759,9.759,0,0,0-3.553-2.83h0c-.157-.074-.426-.192-.641-.277h0c-6.1-2.4-9.942,1.279-12.27,1.279-1.782,0-4.533-2.014-7.447-1.959A11.042,11.042,0,0,0,50,128.735c-3.03,5.259-2.031,12.447.33,18.05h0c.06.143.157.366.237.546h0a25.728,25.728,0,0,0,2.292,4.132c1.894,2.737,4.153,5.821,7.122,5.708,2.857-.113,3.937-1.847,7.39-1.847s4.424,1.847,7.445,1.792c3.075-.058,5.023-2.794,6.9-5.544a25.185,25.185,0,0,0,2.935-5.837A.668.668,0,0,0,84.328,144.92Z" transform="translate(333.305 310.37)" fill="#d6d6d8"/>
    <path id="Path_435" data-name="Path 435" d="M54.676,152.833a25.725,25.725,0,0,1-2.292-4.132h0c-.08-.18-.176-.4-.237-.546h0c-2.346-5.568-3.37-12.773-.33-18.05a11.11,11.11,0,0,1,8.459-5.6,6.805,6.805,0,0,0-.94-.051,11.042,11.042,0,0,0-9.332,5.655c-3.03,5.259-2.031,12.447.33,18.05h0c.06.143.157.366.237.546h0a25.732,25.732,0,0,0,2.291,4.132c1.894,2.737,4.153,5.821,7.122,5.708a6.85,6.85,0,0,0,.824-.083C58.319,157.953,56.354,155.258,54.676,152.833Z" transform="translate(333.304 309)" fill="#c2c2c4"/>
  </g>
</svg>
