<svg xmlns="http://www.w3.org/2000/svg" width="18.465" height="17.649" viewBox="0 0 18.465 17.649">
  <g id="Group_20230" data-name="Group 20230" transform="translate(-1133.553 -8633.281)">
    <g id="linkedin_2_" data-name="linkedin(2)" transform="translate(1133.553 8633.281)">
      <path id="Path_70380" data-name="Path 70380" d="M2.239-.668a2.063,2.063,0,1,0-.052,4.115h.026A2.064,2.064,0,1,0,2.239-.668Zm0,0" transform="translate(0 0.668)" fill="#ed0f68"/>
      <path id="Path_70381" data-name="Path 70381" d="M8.109,198.313h3.958v11.909H8.109Zm0,0" transform="translate(-7.875 -192.572)" fill="#ed0f68"/>
      <path id="Path_70382" data-name="Path 70382" d="M228.741,188.625a4.959,4.959,0,0,0-3.567,2.007V188.9h-3.958v11.909h3.958v-6.65a2.713,2.713,0,0,1,.13-.966,2.167,2.167,0,0,1,2.031-1.447c1.432,0,2.005,1.092,2.005,2.693v6.371H233.3v-6.828c0-3.658-1.953-5.36-4.557-5.36Zm0,0" transform="translate(-214.833 -183.164)" fill="#ed0f68"/>
    </g>
  </g>
</svg>
