<svg xmlns="http://www.w3.org/2000/svg" width="81.333" height="81.333" viewBox="0 0 81.333 81.333">
  <g id="Group_20215" data-name="Group 20215" transform="translate(-191.667 -1132.667)">
    <path id="Path_470" data-name="Path 470" d="M78.55,39.854H77.3a4.908,4.908,0,0,1-.045-1.935,8.534,8.534,0,0,1,1.824-2.774c1.1-1.306,2.238-2.656,2.252-4.3.017-2.073-1.414-3.616-2.677-4.976a8.363,8.363,0,0,1-1.584-2.048,12.438,12.438,0,0,1-.592-2.681c-.3-2-.637-4.259-2.542-5.236S70,15.971,68.2,16.9a12.443,12.443,0,0,1-2.52,1.085,7.089,7.089,0,0,1-2.184-.04,1.191,1.191,0,1,0-.286,2.365,8.771,8.771,0,0,0,3.024-.008,14.072,14.072,0,0,0,3.056-1.284c1.411-.726,2.743-1.412,3.561-.993s1.038,1.9,1.272,3.468a14.075,14.075,0,0,0,.744,3.233,9.953,9.953,0,0,0,2.042,2.764c1.008,1.086,2.05,2.209,2.04,3.336-.007.788-.863,1.8-1.691,2.787a10.127,10.127,0,0,0-2.3,3.685,6.46,6.46,0,0,0-.065,2.559h-8a5.242,5.242,0,0,0-1.081-2.871c.8-2.217,1.511-4.5,2.113-6.793a1.191,1.191,0,1,0-2.3-.6c-.46,1.751-.984,3.494-1.565,5.2a7.525,7.525,0,0,1-1.563-2.524,8.124,8.124,0,0,1,.251-3.229c.348-1.779.742-3.8-.135-5.507s-2.745-2.57-4.393-3.326a8.14,8.14,0,0,1-2.766-1.68,9.289,9.289,0,0,1-1.3-3.389c-.447-1.773-.909-3.607-2.317-4.639-1.777-1.3-4.014-1.021-5.988-.774a9.067,9.067,0,0,1-2.83.1,13.492,13.492,0,0,1-2.749-1.181c-1.919-.987-4.094-2.107-6.11-1.073-1.914.981-2.337,3.212-2.648,5.262a6.627,6.627,0,0,1-2.268-1.45,9.289,9.289,0,0,1-1.3-3.389c-.447-1.773-.909-3.607-2.317-4.639-1.777-1.3-4.014-1.021-5.988-.774a9.076,9.076,0,0,1-2.83.1,13.492,13.492,0,0,1-2.749-1.181C12.132.5,9.957-.619,7.942.414S5.563,3.865,5.244,6A13.494,13.494,0,0,1,4.6,8.922a9.07,9.07,0,0,1-1.73,2.242C1.515,12.622-.018,14.274,0,16.477c.015,1.746,1.234,3.193,2.413,4.591A9.287,9.287,0,0,1,4.4,24.1a8.131,8.131,0,0,1-.251,3.227c-.348,1.78-.743,3.8.134,5.508s2.744,2.569,4.392,3.326a8.123,8.123,0,0,1,2.768,1.683,5.929,5.929,0,0,1,.931,2.008H2.783A2.8,2.8,0,0,0,0,42.784a29.719,29.719,0,0,0,3.5,12.443,1.191,1.191,0,1,0,2.1-1.126A27.359,27.359,0,0,1,2.384,42.648a.373.373,0,0,1,.4-.412H78.55a.372.372,0,0,1,.4.412,27.6,27.6,0,0,1-8.056,17.96,27.232,27.232,0,0,1-19.562,8.1H30a27.37,27.37,0,0,1-21.454-10.2A1.191,1.191,0,0,0,6.7,60.017a29.985,29.985,0,0,0,14.1,9.64v3.4a8.286,8.286,0,0,0,8.276,8.276H52.26a8.286,8.286,0,0,0,8.276-8.276v-3.4A30.092,30.092,0,0,0,81.329,42.784a2.809,2.809,0,0,0-2.779-2.931Zm-50.7,0a83.226,83.226,0,0,1-7.541-14.221A83.077,83.077,0,0,1,16.8,15.142a1.191,1.191,0,1,0-2.3.6,85.5,85.5,0,0,0,3.613,10.792,85.521,85.521,0,0,0,6.9,13.315H14.853A9.165,9.165,0,0,0,13.3,36.343,9.729,9.729,0,0,0,9.673,34c-1.359-.624-2.765-1.27-3.266-2.247s-.2-2.495.084-3.963A9.735,9.735,0,0,0,6.7,23.477a10.882,10.882,0,0,0-2.469-3.945c-.907-1.076-1.844-2.189-1.852-3.076-.01-1.256,1.129-2.484,2.231-3.672A10.691,10.691,0,0,0,6.8,9.826a15.136,15.136,0,0,0,.8-3.474c.257-1.719.5-3.343,1.427-3.818s2.387.276,3.933,1.071a15.134,15.134,0,0,0,3.286,1.38,10.691,10.691,0,0,0,3.679-.049c1.608-.2,3.271-.409,4.284.332.716.525,1.071,1.935,1.415,3.3a10.881,10.881,0,0,0,1.761,4.309,9.738,9.738,0,0,0,3.622,2.343c1.36.624,2.766,1.27,3.267,2.247s.2,2.5-.083,3.963a9.731,9.731,0,0,0-.212,4.31,6.54,6.54,0,0,0,.739,1.665,10.163,10.163,0,0,0-4.783,12.448H27.85Zm18.606,0H32.526a7.784,7.784,0,1,1,13.93,0Zm8.324,0H49.046a10.153,10.153,0,0,0-2.832-11.092A7.784,7.784,0,0,1,54.78,39.854Zm2.589,0A10.17,10.17,0,0,0,43.647,27.1a10.148,10.148,0,0,0-6.66-.579,4.84,4.84,0,0,1-.707-1.408,8.124,8.124,0,0,1,.251-3.229c.348-1.779.742-3.8-.135-5.507a6.158,6.158,0,0,0-2.647-2.468c.258-1.695.49-3.718,1.49-4.23.928-.475,2.387.276,3.933,1.071a15.134,15.134,0,0,0,3.286,1.38,10.691,10.691,0,0,0,3.679-.049c1.608-.2,3.271-.409,4.284.332.716.525,1.071,1.935,1.415,3.3A10.881,10.881,0,0,0,53.6,20.025a9.738,9.738,0,0,0,3.622,2.343c1.36.624,2.766,1.27,3.267,2.247s.2,2.5-.083,3.963a9.73,9.73,0,0,0-.211,4.311,10.872,10.872,0,0,0,2.468,3.946c.888,1.053,1.8,2.141,1.847,3.017Zm.784,33.2a5.9,5.9,0,0,1-5.893,5.893H29.073a5.9,5.9,0,0,1-5.893-5.893V70.314a30.187,30.187,0,0,0,6.822.78h21.33a30.272,30.272,0,0,0,6.822-.775v2.74Z" transform="translate(191.667 1132.665)" fill="#ed0f68"/>
  </g>
</svg>
