<svg xmlns="http://www.w3.org/2000/svg" width="37.333" height="39.829" viewBox="0 0 37.333 39.829">
  <g id="Group_7562" data-name="Group 7562" transform="translate(-155 -425.616)">
    <g id="google-play" transform="translate(138.957 425.616)">
      <path id="Path_428" data-name="Path 428" d="M36.726,35.727,17.462,54.991a4.567,4.567,0,0,1-1.419-3.36V21.416a4.629,4.629,0,0,1,1.468-3.41Z" transform="translate(0 -16.606)" fill="#2196f3"/>
      <path id="Path_429" data-name="Path 429" d="M298.614,161.355a4.724,4.724,0,0,1-2.514,4.156l-5.476,3.036-6.795-6.272-1.867-1.717,7.193-7.193L296.1,157.2A4.723,4.723,0,0,1,298.614,161.355Z" transform="translate(-245.237 -141.438)" fill="#ffc107"/>
      <path id="Path_430" data-name="Path 430" d="M54.137,19.121,34.923,1.4a4.955,4.955,0,0,1,.9-.672A5.011,5.011,0,0,1,40.9.653L61.33,11.928Z" transform="translate(-17.412 0)" fill="#4caf50"/>
      <path id="Path_431" data-name="Path 431" d="M62.208,253.835l-21.9,12.071a4.957,4.957,0,0,1-2.489.647,4.849,4.849,0,0,1-2.588-.722,4.528,4.528,0,0,1-.946-.722l19.264-19.264,1.867,1.717Z" transform="translate(-16.821 -226.725)" fill="#f44336"/>
    </g>
  </g>
</svg>
