<svg xmlns="http://www.w3.org/2000/svg" width="60" height="84.457" viewBox="0 0 60 84.457">
  <g id="Group_20212" data-name="Group 20212" transform="translate(-202 -1128.543)">
    <g id="Group_20211" data-name="Group 20211">
      <path id="doctor_1_" data-name="doctor(1)" d="M126.507,74.734v8.315a1.408,1.408,0,0,1-2.815,0V74.734a11.711,11.711,0,0,0-5.165-9.714,1.408,1.408,0,0,1,1.576-2.333A14.522,14.522,0,0,1,126.507,74.734ZM129.5,34.487V52.258a1.408,1.408,0,0,1-1.408,1.408H125.1a12.289,12.289,0,0,1-9.477-4.449,1.408,1.408,0,1,1,2.165-1.8A9.48,9.48,0,0,0,125.1,50.85h1.584V34.487a6.873,6.873,0,0,0-5.455-6.716v5.015a1.408,1.408,0,1,1-2.815,0V19A16.206,16.206,0,0,0,102.225,2.815H93.78A16.207,16.207,0,0,0,77.592,19V32.786a2.993,2.993,0,0,0,1.584,2.638V27.1a1.408,1.408,0,0,1,2.815,0v9.875a16.012,16.012,0,0,0,32.023,0V28.545a7.948,7.948,0,0,1-7.391-6.254,48.244,48.244,0,0,1-9.548,4.721A46.931,46.931,0,0,1,87.1,29.455a1.408,1.408,0,0,1-.194-2.8,45.366,45.366,0,0,0,19.959-7.92,1.409,1.409,0,0,1,2.221,1.158c0,.035.013,3.526,2.661,5.119a6.363,6.363,0,0,0,3.841.689,1.4,1.4,0,0,1,1.191,1.037c.07.264.048-.356.048,10.342A18.853,18.853,0,0,1,92.694,55.036a8.587,8.587,0,0,1-1.8,4.636L98,65.092l3.751-2.86a1.408,1.408,0,0,1,1.707,2.239c-4.842,3.691-4.613,3.53-4.779,3.621a1.4,1.4,0,0,1-1.133.1c-.311-.105.323.339-8.761-6.586a8.6,8.6,0,0,1-2.926,1.219v6.339a5.279,5.279,0,1,1-2.815,0v-6.1a11.705,11.705,0,0,0-10.733,11.67v8.315a1.408,1.408,0,0,1-2.815,0V74.734A14.52,14.52,0,0,1,84.027,60.206a5.875,5.875,0,0,0,5.882-5.867v-.371A18.864,18.864,0,0,1,79.233,38.432a5.815,5.815,0,0,1-4.456-5.646V19a19.026,19.026,0,0,1,19-19h8.445a19.024,19.024,0,0,1,19,19v5.91A9.692,9.692,0,0,1,129.5,34.487Zm-45.044,37.3a2.463,2.463,0,1,0,2.463,2.463A2.466,2.466,0,0,0,84.454,71.788Zm28.5-2.682c0-8.041.031-7.641-.074-7.955a1.406,1.406,0,0,0-1.238-.954,5.886,5.886,0,0,1-4.7-2.816,1.408,1.408,0,0,0-2.4,1.464,8.7,8.7,0,0,0,5.6,3.977v6.284a7.577,7.577,0,0,0-6.158,7.433v6.51a1.408,1.408,0,1,0,2.815,0v-6.51a4.751,4.751,0,0,1,9.5,0v6.51a1.408,1.408,0,1,0,2.815,0v-6.51a7.577,7.577,0,0,0-6.158-7.433Z" transform="translate(132.502 1128.543)" fill="#ed0f68"/>
    </g>
  </g>
</svg>
