<svg xmlns="http://www.w3.org/2000/svg" width="60.163" height="79.655" viewBox="0 0 60.163 79.655">
  <g id="Group_20214" data-name="Group 20214" transform="translate(-876.777 -1737.678)">
    <g id="Group_119" data-name="Group 119" transform="translate(889.238 1775.185)">
      <g id="Group_118" data-name="Group 118">
        <path id="Path_462" data-name="Path 462" d="M152.484,241.3a1.167,1.167,0,0,0-1.629.266l-3.869,5.379-2.227-2.4a1.167,1.167,0,1,0-1.71,1.589l3.2,3.44a1.167,1.167,0,0,0,.855.373l.073,0a1.168,1.168,0,0,0,.874-.483l4.7-6.536A1.167,1.167,0,0,0,152.484,241.3Z" transform="translate(-142.737 -241.081)" fill="#ed0f68"/>
      </g>
    </g>
    <g id="Group_121" data-name="Group 121" transform="translate(903.423 1794.562)">
      <g id="Group_120" data-name="Group 120">
        <path id="Path_463" data-name="Path 463" d="M253.8,365.629H235.082a1.167,1.167,0,0,0,0,2.334H253.8a1.167,1.167,0,0,0,0-2.334Z" transform="translate(-233.915 -365.629)" fill="#ed0f68"/>
      </g>
    </g>
    <g id="Group_123" data-name="Group 123" transform="translate(889.238 1791.293)">
      <g id="Group_122" data-name="Group 122">
        <path id="Path_464" data-name="Path 464" d="M152.484,344.841a1.167,1.167,0,0,0-1.629.266l-3.869,5.379-2.227-2.4a1.167,1.167,0,0,0-1.71,1.589l3.2,3.44a1.167,1.167,0,0,0,.855.373l.073,0a1.167,1.167,0,0,0,.874-.483l4.7-6.536A1.168,1.168,0,0,0,152.484,344.841Z" transform="translate(-142.737 -344.621)" fill="#ed0f68"/>
      </g>
    </g>
    <g id="Group_125" data-name="Group 125" transform="translate(911.972 1778.453)">
      <g id="Group_124" data-name="Group 124">
        <path id="Path_465" data-name="Path 465" d="M300.2,262.088H290.03a1.167,1.167,0,1,0,0,2.334H300.2a1.167,1.167,0,1,0,0-2.334Z" transform="translate(-288.863 -262.088)" fill="#ed0f68"/>
      </g>
    </g>
    <g id="Group_127" data-name="Group 127" transform="translate(903.423 1778.453)">
      <g id="Group_126" data-name="Group 126">
        <path id="Path_466" data-name="Path 466" d="M238.2,262.089h-3.117a1.167,1.167,0,1,0,0,2.334H238.2a1.167,1.167,0,1,0,0-2.334Z" transform="translate(-233.915 -262.089)" fill="#ed0f68"/>
      </g>
    </g>
    <g id="Group_129" data-name="Group 129" transform="translate(903.423 1762.361)">
      <g id="Group_128" data-name="Group 128">
        <path id="Path_467" data-name="Path 467" d="M253.8,158.653H235.081a1.167,1.167,0,1,0,0,2.334H253.8a1.167,1.167,0,0,0,0-2.334Z" transform="translate(-233.914 -158.653)" fill="#ed0f68"/>
      </g>
    </g>
    <g id="Group_131" data-name="Group 131" transform="translate(889.238 1759.076)">
      <g id="Group_130" data-name="Group 130">
        <path id="Path_468" data-name="Path 468" d="M152.484,137.761a1.167,1.167,0,0,0-1.629.266l-3.869,5.379-2.227-2.4a1.167,1.167,0,1,0-1.71,1.589l3.2,3.44a1.167,1.167,0,0,0,.855.373l.073,0a1.168,1.168,0,0,0,.874-.483l4.7-6.536A1.167,1.167,0,0,0,152.484,137.761Z" transform="translate(-142.737 -137.541)" fill="#ed0f68"/>
      </g>
    </g>
    <g id="Group_133" data-name="Group 133" transform="translate(876.777 1737.678)">
      <g id="Group_132" data-name="Group 132">
        <path id="Path_469" data-name="Path 469" d="M119.4,8.812H107.9V7.18a1.793,1.793,0,0,0-1.791-1.791H98.3V3.861A3.866,3.866,0,0,0,94.438,0H91.015a3.866,3.866,0,0,0-3.861,3.861V5.389h-7.81A1.793,1.793,0,0,0,77.553,7.18V8.812H66.05a3.409,3.409,0,0,0-3.405,3.405v8.17a1.167,1.167,0,1,0,2.334,0v-8.17a1.072,1.072,0,0,1,1.071-1.071h2.516v59.94a3.3,3.3,0,0,0,3.3,3.3h41.719a3.3,3.3,0,0,0,3.3-3.3V11.146H119.4a1.072,1.072,0,0,1,1.071,1.071V76.25a1.072,1.072,0,0,1-1.071,1.071H66.05a1.072,1.072,0,0,1-1.071-1.071V25.818a1.167,1.167,0,1,0-2.334,0V76.25a3.409,3.409,0,0,0,3.405,3.405H119.4a3.409,3.409,0,0,0,3.405-3.405V12.217A3.409,3.409,0,0,0,119.4,8.812ZM79.887,7.724h8.434a1.167,1.167,0,0,0,1.167-1.167v-2.7a1.529,1.529,0,0,1,1.527-1.527h3.423a1.529,1.529,0,0,1,1.527,1.527v2.7a1.167,1.167,0,0,0,1.167,1.167h8.434v5.352H79.887Zm34.665,63.363h0a.967.967,0,0,1-.966.966H71.867a.967.967,0,0,1-.966-.966V11.146h6.652V13.62a1.793,1.793,0,0,0,1.791,1.791H106.11A1.793,1.793,0,0,0,107.9,13.62V11.146h6.652Z" transform="translate(-62.645)" fill="#ed0f68"/>
      </g>
    </g>
  </g>
</svg>
