<svg xmlns="http://www.w3.org/2000/svg" width="150" height="95" viewBox="0 0 150 95">
  <g id="Group_20299" data-name="Group 20299" transform="translate(-344 -7318)">
    <g id="Ellipse_998" data-name="Ellipse 998" transform="translate(474 7318)" fill="#fff" stroke="#ed0f68" stroke-width="1" stroke-dasharray="4">
      <circle cx="10" cy="10" r="10" stroke="none"/>
      <circle cx="10" cy="10" r="9.5" fill="none"/>
    </g>
    <g id="Ellipse_999" data-name="Ellipse 999" transform="translate(344 7338)" fill="#fff" stroke="#ed0f68" stroke-width="0.8">
      <circle cx="6" cy="6" r="6" stroke="none"/>
      <circle cx="6" cy="6" r="5.6" fill="none"/>
    </g>
    <path id="Path_89668" data-name="Path 89668" d="M236.623,178.984c.4.031.781.046,1.143.046,5.022-.015,6.336-2.82,6.526-5.342V154.266a5.565,5.565,0,0,0-5.591-5.3H216.907a1.3,1.3,0,0,0,0,2.607h21.812a2.954,2.954,0,0,1,2.966,2.725v19.329c-.153,1.547-.874,3.064-4.862,2.759a1.3,1.3,0,1,0-.2,2.6Z" transform="translate(199.377 7200.943)" fill="#ed0f68"/>
    <path id="Path_89669" data-name="Path 89669" d="M142.243,149.043h-4.075a5.449,5.449,0,0,0-5.574,5.3l.022,26.931a3.121,3.121,0,0,0,5.066,2.413l4.647-3.821a3.525,3.525,0,0,1,2.194-.8H162.06a1.3,1.3,0,1,0,0-2.607H144.523a6.127,6.127,0,0,0-3.836,1.384l-4.623,3.8c-.366.256-.854.1-.84-.37l-.022-26.929a2.843,2.843,0,0,1,2.966-2.693h4.075a1.3,1.3,0,0,0,0-2.607Z" transform="translate(267.956 7200.865)" fill="#ed0f68"/>
    <path id="Path_89670" data-name="Path 89670" d="M301.943,232.075a3.911,3.911,0,1,0-3.911,3.911A3.916,3.916,0,0,0,301.943,232.075Zm-5.215,0a1.3,1.3,0,1,1,1.3,1.3A1.305,1.305,0,0,1,296.728,232.075Z" transform="translate(134.508 7135.497)" fill="#ed0f68"/>
    <path id="Path_89671" data-name="Path 89671" d="M241.943,232.075a3.911,3.911,0,1,0-3.911,3.911A3.916,3.916,0,0,0,241.943,232.075Zm-5.215,0a1.3,1.3,0,1,1,1.3,1.3A1.305,1.305,0,0,1,236.728,232.075Z" transform="translate(184.078 7135.497)" fill="#ed0f68"/>
    <path id="Path_89672" data-name="Path 89672" d="M174.121,232.075a3.911,3.911,0,1,0,3.911-3.911A3.916,3.916,0,0,0,174.121,232.075Zm3.911-1.3a1.3,1.3,0,1,1-1.3,1.3A1.305,1.305,0,0,1,178.032,230.771Z" transform="translate(233.648 7135.497)" fill="#ed0f68"/>
    <path id="Path_89673" data-name="Path 89673" d="M150.389,61.85a1.3,1.3,0,0,0,1.3-1.3V7.692A7.681,7.681,0,0,0,144.041,0H103.756A7.681,7.681,0,0,0,96.1,7.692V81.308A7.681,7.681,0,0,0,103.756,89h40.285a7.681,7.681,0,0,0,7.652-7.692V66.619a1.3,1.3,0,1,0-2.607,0v3.987H98.711V12.322h37.908a1.3,1.3,0,0,0,0-2.607H98.711V7.692a5.071,5.071,0,0,1,5.045-5.085h40.285a5.071,5.071,0,0,1,5.045,5.085V9.715h-6.432a1.3,1.3,0,1,0,0,2.607h6.432V60.547a1.3,1.3,0,0,0,1.3,1.3Zm-1.3,11.363v8.094a5.071,5.071,0,0,1-5.045,5.085H103.756a5.071,5.071,0,0,1-5.045-5.085V73.213Z" transform="translate(298.104 7324)" fill="#ed0f68"/>
    <path id="Path_89674" data-name="Path 89674" d="M237.165,444.413a3.911,3.911,0,1,0-3.909-3.911A3.915,3.915,0,0,0,237.165,444.413Zm0-5.215a1.3,1.3,0,1,1-1.3,1.3A1.3,1.3,0,0,1,237.165,439.2Z" transform="translate(184.792 6963.301)" fill="#ed0f68"/>
    <path id="Path_89675" data-name="Path 89675" d="M224.621,26.446a1.3,1.3,0,1,0,0,2.607h8.755a1.3,1.3,0,0,0,0-2.607Z" transform="translate(193.004 7302.151)" fill="#ed0f68"/>
    <path id="Path_89676" data-name="Path 89676" d="M316.9,27.049a1.3,1.3,0,1,0-.162,1.646A1.314,1.314,0,0,0,316.9,27.049Z" transform="translate(117.657 7302.127)" fill="#ed0f68"/>
    <circle id="Ellipse_1000" data-name="Ellipse 1000" cx="6" cy="6" r="6" transform="translate(462 7385)" fill="#ed0f68"/>
  </g>
</svg>
