<svg id="mood" xmlns="http://www.w3.org/2000/svg" width="73.41" height="63.067" viewBox="0 0 73.41 63.067">
  <path id="Path_70835" data-name="Path 70835" d="M94.926,263.892a3.374,3.374,0,1,0-6.748,0v1.149a3.374,3.374,0,0,0,6.748,0Zm-2.151,1.149a1.223,1.223,0,0,1-2.447,0v-1.149a1.223,1.223,0,0,1,2.447,0Z" transform="translate(-75.535 -228.336)" fill="#94daec"/>
  <path id="Path_70836" data-name="Path 70836" d="M207.152,265.041v-1.149a3.374,3.374,0,0,0-6.748,0v1.149a3.374,3.374,0,0,0,6.748,0Zm-4.6,0v-1.149a1.223,1.223,0,0,1,2.447,0v1.149a1.223,1.223,0,0,1-2.447,0Z" transform="translate(-171.669 -228.336)" fill="#94daec"/>
  <path id="Path_70837" data-name="Path 70837" d="M129.333,366.879h9.2a1.075,1.075,0,0,0,0-2.151h-9.2a1.075,1.075,0,1,0,0,2.151Z" transform="translate(-109.868 -317.604)" fill="#94daec"/>
  <path id="Path_70838" data-name="Path 70838" d="M247.479,81.818a5.708,5.708,0,0,0-4.857,1.085,5.647,5.647,0,0,0-2.138,4.437,1.075,1.075,0,1,0,2.151,0,3.525,3.525,0,1,1,4.7,3.319,3.275,3.275,0,0,0-2.257,3.075,1.075,1.075,0,0,0,2.151,0,1.153,1.153,0,0,1,.828-1.049,5.712,5.712,0,0,0,3.619-6.668A5.613,5.613,0,0,0,247.479,81.818Z" transform="translate(-206.003 -75.13)" fill="#94daec"/>
  <path id="Path_70839" data-name="Path 70839" d="M72.424,78.434l-7.375-7.375a1.075,1.075,0,1,0-1.521,1.521L70.9,79.954a1.223,1.223,0,1,1-1.73,1.73L57.865,70.376l1.73-1.73.487.487A1.075,1.075,0,1,0,61.6,67.613l-2.971-2.971A3.376,3.376,0,0,0,54.744,64L51.4,60.656a14.865,14.865,0,1,0-26.109-9.721c0,.035,0,.07,0,.105-.408-.021-.817-.031-1.225-.031A24.045,24.045,0,1,0,47.021,67.851a1.075,1.075,0,1,0-2.051.646A21.915,21.915,0,1,1,24.063,53.16c.465,0,.932.016,1.4.046a14.861,14.861,0,0,0,24.415,8.971l3.351,3.351a3.378,3.378,0,0,0,.634,3.885L67.652,83.2a3.374,3.374,0,1,0,4.772-4.771Zm-44.987-27.5A12.717,12.717,0,1,1,40.154,63.653,12.731,12.731,0,0,1,27.437,50.936ZM55.022,67.027a1.223,1.223,0,0,1,2.088-.865l.964.964-1.73,1.73-.964-.964A1.216,1.216,0,0,1,55.022,67.027Z" transform="translate(0 -36.068)" fill="#94daec"/>
  <path id="Path_70840" data-name="Path 70840" d="M273.669,185.868h-.011a1.081,1.081,0,1,0,.011,0Z" transform="translate(-233.504 -164.389)" fill="#94daec"/>
</svg>
