<svg xmlns="http://www.w3.org/2000/svg" width="67.419" height="67.189" viewBox="0 0 67.419 67.189">
  <g id="Group_7561" data-name="Group 7561" transform="translate(-1058.963 -6225.99)">
    <path id="Path_70818" data-name="Path 70818" d="M166.014,39.7a3.023,3.023,0,1,0,3.023-3.023A3.026,3.026,0,0,0,166.014,39.7Zm4.071,0a1.048,1.048,0,1,1-1.048-1.048A1.049,1.049,0,0,1,170.085,39.7Z" transform="translate(914.809 6194.027)" fill="#ed1068"/>
    <path id="Path_70819" data-name="Path 70819" d="M124.742,198.094a4.068,4.068,0,1,0-4.068,4.068A4.073,4.073,0,0,0,124.742,198.094Zm-6.161,0a2.093,2.093,0,1,1,2.093,2.093A2.1,2.1,0,0,1,118.58,198.094Z" transform="translate(957.712 6057.397)" fill="#ed1068"/>
    <path id="Path_70820" data-name="Path 70820" d="M67.13,66.376a4.968,4.968,0,0,1-1.506-3.353,7.124,7.124,0,0,0-6.53-6.53,5.17,5.17,0,0,1-4.859-4.859,7.063,7.063,0,0,0-1.407-3.726l1.663-1.663a2.03,2.03,0,0,0,0-2.872l-1.743-1.743.082-.082a2.9,2.9,0,0,0,0-4.095l-5.871-5.871c-.192-.192-.4-.378-.613-.558a13.557,13.557,0,0,1,1.267-1.793c1.009-1.285,2.153-2.741,2.153-4.493s-1.144-3.209-2.153-4.493a8.836,8.836,0,0,1-1.531-2.395,9.234,9.234,0,0,1-.193-2.965c.009-.265.018-.529.022-.792a.988.988,0,1,0-1.975-.035c0,.252-.013.507-.021.761a10.727,10.727,0,0,0,.288,3.64,10.3,10.3,0,0,0,1.857,3c.89,1.133,1.731,2.2,1.731,3.273s-.841,2.14-1.731,3.273A16.551,16.551,0,0,0,44.712,29.9a13.108,13.108,0,0,0-4.232-1.5l-.112-.016a15.924,15.924,0,0,0-6.94-17.061,2.909,2.909,0,0,0-3.6.4,7.572,7.572,0,0,1-4.944,2.376,7.572,7.572,0,0,1-4.944-2.376,2.916,2.916,0,0,0-3.611-.388,15.831,15.831,0,0,0-7.25,11.637.988.988,0,1,0,1.963.218,13.864,13.864,0,0,1,6.351-10.191.929.929,0,0,1,1.151.12,9.541,9.541,0,0,0,6.341,2.954,9.541,9.541,0,0,0,6.341-2.955.922.922,0,0,1,1.14-.126,13.936,13.936,0,0,1,6,15.256,6.719,6.719,0,0,0-4.694,1.821c-1.523,1.523-2.118,3.884-1.687,6.657A13.929,13.929,0,0,1,11.042,26.291a.988.988,0,0,0-1.963.221,15.934,15.934,0,0,0,15.578,14.13l.226,0a15.829,15.829,0,0,0,7.58-1.922,11.953,11.953,0,0,0,2.545,4.439c-.173.247-.341.5-.506.743-.8,1.186-1.549,2.307-2.537,2.628-.924.3-2.161-.148-3.471-.622a10.859,10.859,0,0,0-3.61-.862,10.859,10.859,0,0,0-3.61.862c-1.31.474-2.547.923-3.471.622-.987-.321-1.74-1.441-2.536-2.628a10.472,10.472,0,0,0-2.319-2.733A10.579,10.579,0,0,0,9.6,39.787c-1.364-.391-2.652-.76-3.25-1.583s-.544-2.139-.5-3.548a10.725,10.725,0,0,0-.288-3.64,10.3,10.3,0,0,0-1.857-3c-.891-1.133-1.732-2.2-1.732-3.273s.841-2.14,1.731-3.273a10.3,10.3,0,0,0,1.857-3,10.726,10.726,0,0,0,.288-3.64c-.047-1.409-.091-2.74.5-3.548S8.236,10.081,9.6,9.69a10.585,10.585,0,0,0,3.348-1.384,10.472,10.472,0,0,0,2.319-2.733c.8-1.186,1.549-2.307,2.536-2.627.924-.3,2.161.148,3.471.622a10.86,10.86,0,0,0,3.61.862,10.857,10.857,0,0,0,3.61-.862c1.31-.474,2.547-.922,3.471-.622.987.321,1.74,1.441,2.536,2.628A10.472,10.472,0,0,0,36.82,8.306,10.584,10.584,0,0,0,40.167,9.69a6.658,6.658,0,0,1,3.151,1.458.988.988,0,1,0,1.5-1.289,8.053,8.053,0,0,0-4.1-2.068,9.1,9.1,0,0,1-2.73-1.082A9,9,0,0,1,36.14,4.472c-.949-1.413-1.93-2.874-3.566-3.405-1.569-.509-3.188.077-4.754.644a9.344,9.344,0,0,1-2.937.744,9.349,9.349,0,0,1-2.937-.744c-1.566-.567-3.185-1.153-4.754-.644-1.636.531-2.617,1.992-3.566,3.405a9,9,0,0,1-1.842,2.237,9.1,9.1,0,0,1-2.73,1.082c-1.625.466-3.3.948-4.3,2.319s-.93,3.1-.875,4.776a9.234,9.234,0,0,1-.193,2.964,8.843,8.843,0,0,1-1.531,2.395C1.144,21.53,0,22.986,0,24.738s1.144,3.209,2.153,4.493a8.835,8.835,0,0,1,1.531,2.395,9.229,9.229,0,0,1,.193,2.964c-.056,1.681-.114,3.418.874,4.776s2.678,1.853,4.3,2.319a9.1,9.1,0,0,1,2.73,1.082A9,9,0,0,1,13.627,45c.949,1.413,1.929,2.874,3.566,3.405a4.1,4.1,0,0,0,1.277.2,10.563,10.563,0,0,0,3.477-.839,9.345,9.345,0,0,1,2.937-.744,9.348,9.348,0,0,1,2.937.744c1.566.567,3.185,1.153,4.754.644,1.636-.531,2.618-1.992,3.566-3.405.1-.143.19-.282.283-.419l1.535,1.535a.988.988,0,0,0,1.4-1.4l-2.769-2.769a10.439,10.439,0,0,1-2.632-5.411c-.363-2.16.043-4.012,1.114-5.083s2.924-1.477,5.083-1.114a10.44,10.44,0,0,1,5.411,2.632l5.871,5.871a.921.921,0,0,1,0,1.3L43.76,47.826a.921.921,0,0,1-1.3,0l-.742-.742a.988.988,0,1,0-1.4,1.4l.742.742a2.894,2.894,0,0,0,4.095,0l.082-.082,1.743,1.743a2.03,2.03,0,0,0,2.872,0l1.564-1.564a5.368,5.368,0,0,1,.864,2.6,7.123,7.123,0,0,0,6.529,6.529,5.171,5.171,0,0,1,4.859,4.859,6.893,6.893,0,0,0,2.064,4.466.987.987,0,1,0,1.4-1.4ZM48.456,49.488a.055.055,0,0,1-.078,0l-1.743-1.743,4.717-4.717,1.743,1.743a.055.055,0,0,1,0,.078Z" transform="translate(1058.963 6225.117)" fill="#ed1068"/>
  </g>
</svg>
