<svg xmlns="http://www.w3.org/2000/svg" width="74" height="82" viewBox="0 0 74 82">
  <g id="Group_20208" data-name="Group 20208" transform="translate(-166 -6561)">
    <g id="Group_8094" data-name="Group 8094" transform="translate(194.939 6571)">
      <g id="Group_8093" data-name="Group 8093">
        <path id="Path_72740" data-name="Path 72740" d="M92.067,7.29a8.5,8.5,0,0,0-15.282-3.8A1,1,0,1,0,78.4,4.67a6.5,6.5,0,0,1,11.687,2.9,1,1,0,0,0,.989.859,1.071,1.071,0,0,0,.142-.01A1,1,0,0,0,92.067,7.29Z" transform="translate(-76.593)" fill="#fff"/>
      </g>
    </g>
    <g id="Group_8096" data-name="Group 8096" transform="translate(179 6584)">
      <g id="Group_8095" data-name="Group 8095" transform="translate(0)">
        <path id="Path_72741" data-name="Path 72741" d="M68.042,49.857l-3-5a1,1,0,0,0-.858-.485H61.309a1,1,0,0,0,0,2h2.309l1.8,3H24.951l1.8-3H27.81a1,1,0,1,0,0-2H26.185a1,1,0,0,0-.858.485l-3,5a1,1,0,0,0,.858,1.515h44a1,1,0,0,0,.858-1.515Z" transform="translate(-22.185 -44.372)" fill="#fff"/>
      </g>
    </g>
    <g id="Group_8098" data-name="Group 8098" transform="translate(203.362 6576.603)">
      <g id="Group_8097" data-name="Group 8097">
        <path id="Path_72742" data-name="Path 72742" d="M121.853,22.787a1,1,0,0,0-.622-.446L107.6,19.152a1,1,0,0,0-1.2.746l-1.028,4.394a1,1,0,0,0,1.947.455l.8-3.42L119.8,24.06l-1.836,7.85a1,1,0,0,0,.746,1.2,1.011,1.011,0,0,0,.229.026,1,1,0,0,0,.972-.772l2.064-8.823A1,1,0,0,0,121.853,22.787Z" transform="translate(-105.343 -19.126)" fill="#fff"/>
      </g>
    </g>
    <g id="Group_8100" data-name="Group 8100" transform="translate(182.899 6574.039)">
      <g id="Group_8099" data-name="Group 8099">
        <path id="Path_72743" data-name="Path 72743" d="M55.123,18.963l-.911-7.706A1,1,0,0,0,53.1,10.38L36.376,12.357a1,1,0,0,0-.875,1.111L37.02,26.321a1,1,0,0,0,.992.883,1.092,1.092,0,0,0,.119-.007,1,1,0,0,0,.875-1.111L37.6,14.226l14.739-1.742.793,6.713a1,1,0,0,0,1.986-.234Z" transform="translate(-35.494 -10.374)" fill="#fff"/>
      </g>
    </g>
    <g id="Group_8102" data-name="Group 8102" transform="translate(190.37 6580.6)">
      <g id="Group_8101" data-name="Group 8101">
        <path id="Path_72744" data-name="Path 72744" d="M81.063,41.789l-1.985-8.254a1,1,0,0,0-1.206-.738L61.763,36.671a1,1,0,0,0-.739,1.206L62.017,42a1,1,0,1,0,1.944-.468L63.2,38.382l14.165-3.406,1.751,7.281a1,1,0,0,0,1.945-.468Z" transform="translate(-60.997 -32.769)" fill="#fff"/>
      </g>
    </g>
    <g id="Group_8104" data-name="Group 8104" transform="translate(177 6589)">
      <g id="Group_8103" data-name="Group 8103" transform="translate(0)">
        <path id="Path_72745" data-name="Path 72745" d="M63.357,62.39a1,1,0,0,0-1-.949h-44a1,1,0,0,0-1,.949l-2,39a1,1,0,0,0,1,1.051h48a1,1,0,0,0,1-1.051ZM17.411,100.44l1.9-37h42.1l1.9,37Z" transform="translate(-15.359 -61.441)" fill="#fff"/>
      </g>
    </g>
    <g id="Group_8106" data-name="Group 8106" transform="translate(206.5 6593)">
      <g id="Group_8105" data-name="Group 8105">
        <path id="Path_72746" data-name="Path 72746" d="M119.052,75.093a3,3,0,1,0,3,3A3,3,0,0,0,119.052,75.093Zm0,4a1,1,0,1,1,1-1A1,1,0,0,1,119.052,79.093Z" transform="translate(-116.052 -75.093)" fill="#fff"/>
      </g>
    </g>
    <g id="Group_8108" data-name="Group 8108" transform="translate(191.5 6593)">
      <g id="Group_8107" data-name="Group 8107">
        <path id="Path_72747" data-name="Path 72747" d="M67.852,75.093a3,3,0,1,0,3,3A3,3,0,0,0,67.852,75.093Zm0,4a1,1,0,1,1,1-1A1,1,0,0,1,67.852,79.093Z" transform="translate(-64.852 -75.093)" fill="#fff"/>
      </g>
    </g>
    <g id="Group_8110" data-name="Group 8110" transform="translate(193.5 6596)">
      <g id="Group_8109" data-name="Group 8109">
        <path id="Path_72748" data-name="Path 72748" d="M87.679,85.333H87.6a1,1,0,0,0-1,1,.989.989,0,0,0,.077.386v5.114a6.5,6.5,0,1,1-13,0v-5.5a1,1,0,1,0-2,0v5.5a8.5,8.5,0,0,0,17,0v-5.5A1,1,0,0,0,87.679,85.333Z" transform="translate(-71.679 -85.333)" fill="#fff"/>
      </g>
    </g>
    <circle id="Ellipse_379" data-name="Ellipse 379" cx="1.5" cy="1.5" r="1.5" transform="translate(221 6570)" fill="#fff"/>
    <circle id="Ellipse_380" data-name="Ellipse 380" cx="2" cy="2" r="2" transform="translate(180 6639)" fill="#fff"/>
    <g id="Ellipse_381" data-name="Ellipse 381" transform="translate(166 6561)" fill="none" stroke="#fff" stroke-width="1.2" stroke-dasharray="2">
      <circle cx="6" cy="6" r="6" stroke="none"/>
      <circle cx="6" cy="6" r="5.4" fill="none"/>
    </g>
    <g id="Ellipse_382" data-name="Ellipse 382" transform="translate(234 6613)" fill="none" stroke="#fff" stroke-width="0.5">
      <circle cx="3" cy="3" r="3" stroke="none"/>
      <circle cx="3" cy="3" r="2.75" fill="none"/>
    </g>
  </g>
</svg>
