<svg xmlns="http://www.w3.org/2000/svg" width="73.202" height="62.476" viewBox="0 0 73.202 62.476">
  <g id="Group_7562" data-name="Group 7562" transform="translate(-854.304 -6291.049)">
    <path id="Path_70822" data-name="Path 70822" d="M364.991,256.9a1.072,1.072,0,0,0,1.072-1.072v-.491a1.072,1.072,0,1,0-2.145,0v.491A1.072,1.072,0,0,0,364.991,256.9Z" transform="translate(542.417 6067.776)" fill="#ed1068"/>
    <path id="Path_70823" data-name="Path 70823" d="M413.576,277.888a1.069,1.069,0,0,0,.758-.314l.347-.347a1.072,1.072,0,1,0-1.517-1.517l-.347.347a1.072,1.072,0,0,0,.758,1.831Z" transform="translate(500.779 6049.665)" fill="#ed1068"/>
    <path id="Path_70824" data-name="Path 70824" d="M434.19,328.554a1.072,1.072,0,1,0,0-2.145H433.7a1.072,1.072,0,0,0,0,2.145Z" transform="translate(483.533 6005.946)" fill="#ed1068"/>
    <path id="Path_70825" data-name="Path 70825" d="M292.846,326.409a1.072,1.072,0,1,0,0,2.145h.491a1.072,1.072,0,1,0,0-2.145Z" transform="translate(604.247 6005.946)" fill="#ed1068"/>
    <path id="Path_70826" data-name="Path 70826" d="M412.816,376.824l.347.347a1.072,1.072,0,0,0,1.517-1.517l-.347-.347a1.072,1.072,0,0,0-1.517,1.517Z" transform="translate(500.78 5964.308)" fill="#ed1068"/>
    <path id="Path_70827" data-name="Path 70827" d="M363.919,396.19v.491a1.072,1.072,0,0,0,2.145,0v-.491a1.072,1.072,0,0,0-2.145,0Z" transform="translate(542.417 5947.061)" fill="#ed1068"/>
    <path id="Path_70828" data-name="Path 70828" d="M313.566,375.307l-.347.347a1.072,1.072,0,0,0,1.517,1.516l.347-.347a1.072,1.072,0,0,0-1.517-1.516Z" transform="translate(586.137 5964.309)" fill="#ed1068"/>
    <path id="Path_70829" data-name="Path 70829" d="M315.083,276.057l-.347-.347a1.072,1.072,0,0,0-1.517,1.516l.347.347a1.072,1.072,0,1,0,1.517-1.516Z" transform="translate(586.137 6049.667)" fill="#ed1068"/>
    <path id="Path_70830" data-name="Path 70830" d="M67.921,67.9a1.073,1.073,0,0,0-.243,1.5,17.966,17.966,0,1,1-2.724-3,1.072,1.072,0,0,0,1.416-1.61A20.07,20.07,0,0,0,56,60a37.376,37.376,0,0,0-1.168-10.65,2.852,2.852,0,0,1,.73-2.774l1.1-1.1a3.8,3.8,0,0,0,.141-5.294,3.752,3.752,0,0,0-2.7-1.205,3.922,3.922,0,0,0-2.9,1.269,2.855,2.855,0,0,1-3.275.539c-7.32-3.58-20.857-4.33-31.489-1.743a1.072,1.072,0,0,0,.507,2.084,58.069,58.069,0,0,1,15.951-1.411c5.673.263,10.677,1.327,14.089,3a5,5,0,0,0,5.734-.949,1.738,1.738,0,0,1,1.348-.641,1.626,1.626,0,0,1,1.17.522,1.684,1.684,0,0,1-.088,2.316l-1.1,1.1a5,5,0,0,0-1.28,4.863,35.063,35.063,0,0,1,1.095,9.882c-.25-.009-.5-.015-.751-.015A20.131,20.131,0,0,0,33.38,76.038c-8.3.416-17.079-.844-22.587-3.263A5.007,5.007,0,0,0,5.28,73.827l-.342.342a1.636,1.636,0,0,1-2.314-2.314l.891-.891A5,5,0,0,0,4.8,66.13a32.774,32.774,0,0,1,.273-16.068,5,5,0,0,0-1.256-4.948l-1.2-1.2A1.636,1.636,0,0,1,4.938,41.6l.52.52a5,5,0,0,0,5.652.988c.569-.269,1.19-.529,1.846-.775a1.072,1.072,0,0,0-.753-2.008c-.71.266-1.386.55-2.008.844a2.847,2.847,0,0,1-3.22-.565l-.52-.52a3.781,3.781,0,1,0-5.347,5.347l1.2,1.2a2.855,2.855,0,0,1,.715,2.827A35.147,35.147,0,0,0,2.734,66.69,2.853,2.853,0,0,1,2,69.447l-.891.891a3.781,3.781,0,0,0,5.347,5.347l.342-.342a2.847,2.847,0,0,1,3.134-.6c5.123,2.25,12.578,3.527,20.179,3.527q1.484,0,2.971-.067c-.047.557-.072,1.12-.072,1.69a20.1,20.1,0,1,0,36.41-11.741,1.074,1.074,0,0,0-1.5-.242Z" transform="translate(854.302 6253.539)" fill="#ed1068"/>
    <path id="Path_70831" data-name="Path 70831" d="M348.99,289.554l-.731-.611a1.072,1.072,0,0,0-1.375,1.646l2.491,2.081a1.073,1.073,0,0,0,1.76-.823V285.9a1.072,1.072,0,0,0-2.145,0v3.651Z" transform="translate(557.346 6041.58)" fill="#ed1068"/>
    <path id="Path_70832" data-name="Path 70832" d="M422.658,144.766h3.013a1.072,1.072,0,1,0,0-2.145H424.7l1.731-2.511a1.072,1.072,0,0,0-.883-1.681h-2.815a1.072,1.072,0,0,0,0,2.145h.773l-1.731,2.511A1.073,1.073,0,0,0,422.658,144.766Z" transform="translate(492.997 6167.049)" fill="#ed1068"/>
    <path id="Path_70833" data-name="Path 70833" d="M469.984,113.167H474a1.072,1.072,0,1,0,0-2.145h-1.971l2.691-3.9a1.072,1.072,0,0,0-.883-1.681h-3.75a1.072,1.072,0,0,0,0,2.145h1.707l-2.691,3.9A1.073,1.073,0,0,0,469.984,113.167Z" transform="translate(452.437 6195.322)" fill="#ed1068"/>
    <path id="Path_70834" data-name="Path 70834" d="M274.513,255.582a1.072,1.072,0,0,0,.688,1.351,15.271,15.271,0,1,0-4.125-2.08,1.072,1.072,0,1,0,1.245-1.746,13.072,13.072,0,1,1,3.544,1.787A1.072,1.072,0,0,0,274.513,255.582Z" transform="translate(627.481 6091.01)" fill="#ed1068"/>
  </g>
</svg>
