<svg xmlns="http://www.w3.org/2000/svg" width="70.154" height="79.655" viewBox="0 0 70.154 79.655">
  <g id="Group_7576" data-name="Group 7576" transform="translate(-646 -1117.678)">
    <g id="Group_115" data-name="Group 115" transform="translate(646 1117.678)">
      <g id="Group_114" data-name="Group 114">
        <path id="Path_460" data-name="Path 460" d="M97.6,58.719a15.388,15.388,0,0,0-8.025-5.582l-8.012-2.5h0l-5.731-1.787a2.4,2.4,0,0,0-1.542.038,1.937,1.937,0,0,1-.65-1.442v-.358l8.851-2.3a6.851,6.851,0,0,0,5.126-6.63V33.785a3.375,3.375,0,0,0,2.133-3.134v-5.7a3.348,3.348,0,0,0-2.133-3.132V20.675a20.949,20.949,0,0,0-.166-2.633,1.168,1.168,0,1,0-2.317.295,18.617,18.617,0,0,1,.147,2.338v2.213a12.757,12.757,0,0,1-2.294-.79l-.122-.057a9.993,9.993,0,0,1-4.678-4.334l-.053-.1q-.067-.13-.131-.263c-.033-.069-.065-.139-.1-.209s-.059-.129-.087-.2c-.061-.143-.119-.288-.174-.436a1.169,1.169,0,0,0-1.057-.76c-.017,0-.035,0-.052,0s-.057,0-.085,0a1.167,1.167,0,0,0-.564.206c-.022.015-.044.03-.066.046l-.047.037-.008.006-.035.027-.028.021-.035.027-.055.042-.029.022-.086.065-.02.015c-2.161,1.621-14.186,10.15-25.726,8.522l-.061-.009q-.278-.04-.556-.089l-.159-.028q-.24-.044-.479-.094l-.154-.032q-.277-.06-.552-.128l-.223-.058q-.171-.045-.341-.092l-.269-.077c-.124-.037-.248-.076-.372-.116s-.222-.072-.332-.11-.249-.086-.373-.131l-.221-.082c-.167-.064-.334-.129-.5-.2l-.046-.019V20.675A18.36,18.36,0,0,1,63.453,2.336h3.488a18.334,18.334,0,0,1,16.85,11.088,1.168,1.168,0,0,0,2.145-.924,20.668,20.668,0,0,0-19-12.5H63.453A20.7,20.7,0,0,0,42.778,20.675v1.62a3.373,3.373,0,0,0-1.3,2.654v5.7a3.365,3.365,0,0,0,1.3,2.656v4.805a6.839,6.839,0,0,0,5.193,6.646l9.618,2.4v.29a1.937,1.937,0,0,1-.65,1.443,2.4,2.4,0,0,0-1.542-.039l-5.731,1.787h0l-8.012,2.5A15.46,15.46,0,0,0,31.789,61.9c-.14.327-.271.664-.389,1a1.168,1.168,0,1,0,2.205.77c.1-.286.211-.572.33-.85a13.131,13.131,0,0,1,8.384-7.445l.018-.005,7.3-2.275,6.1,6.961a4.566,4.566,0,0,0,4.92,1.317l4.96-1.69,4.46,1.519a5.353,5.353,0,0,0,5.768-1.543l5.752-6.564,7.3,2.275.018.005A13.166,13.166,0,0,1,98.355,68v9.163a.153.153,0,0,1-.153.153H91.894V66.643a1.168,1.168,0,0,0-2.336,0V77.32H41.67V66.643a1.168,1.168,0,0,0-2.336,0V77.32H33.026a.153.153,0,0,1-.153-.153V68.756a1.168,1.168,0,0,0-2.336,0v8.411a2.492,2.492,0,0,0,2.489,2.489H98.2a2.492,2.492,0,0,0,2.489-2.489V68A15.39,15.39,0,0,0,97.6,58.719ZM81.9,42.526l-5.609,1.458c.072-.052.141-.107.212-.16l.087-.066q.3-.226.589-.463l.075-.062q.309-.256.606-.526l.029-.026q.475-.432.918-.9l.065-.07q.219-.232.431-.47l1.318-.226a6.083,6.083,0,0,0,4.656-3.8v.94h0A4.515,4.515,0,0,1,81.9,42.526ZM83.708,31.64q.078-.577.12-1.165c0-.04,0-.079.008-.119q.015-.23.024-.461c0-.05,0-.1.006-.149.006-.19.01-.38.01-.571V24.932a12.882,12.882,0,0,0,2.478.51h0a1.167,1.167,0,0,0,.884-.306,1.2,1.2,0,0,0,.088-.091c.01-.011.018-.023.028-.035s.034-.043.05-.065l.007-.009v5.715a1.034,1.034,0,0,1-.984,1.031h-.019l-.057,0H83.7C83.7,31.67,83.706,31.655,83.708,31.64Zm-1.853,5.878q.122-.237.238-.478c.039-.081.077-.163.115-.245q.108-.234.21-.471c.035-.082.068-.164.1-.246q.088-.215.171-.432c.025-.067.052-.133.076-.2.068-.185.131-.371.193-.558.023-.07.046-.14.068-.21q.091-.289.174-.582c.007-.025.016-.05.023-.075h.133v.989a3.752,3.752,0,0,1-1.92,3.281c.03-.051.057-.1.086-.156q.1-.179.2-.359C81.765,37.69,81.811,37.6,81.855,37.519Zm-37.43-5.926h0a1.035,1.035,0,0,1-.608-.941V25.5l.1.044.162.069q.174.074.35.145l.153.062q.236.093.475.181l.019.007a21.126,21.126,0,0,0,2.276.689v2.477c0,.191,0,.381.01.571,0,.05,0,.1.006.149q.009.231.024.461c0,.04,0,.079.008.119q.042.588.12,1.165c0,.015,0,.03.005.045H44.849A1.028,1.028,0,0,1,44.425,31.593Zm4.11,10.9a4.507,4.507,0,0,1-3.422-4.38V34.021H48c.007.025.015.049.022.074q.084.3.178.6c.022.069.045.138.068.207.063.191.129.381.2.57.026.069.052.138.079.207q.089.233.185.464.056.137.115.272.095.218.195.434c.036.077.071.155.109.232.079.165.162.328.246.489q.067.128.135.255.125.232.257.46c.051.089.1.178.157.266q.1.164.2.326.121.193.247.382.085.127.171.253.152.221.31.437c.053.072.105.143.159.214q.185.245.378.482c.043.053.085.106.128.159q.13.158.264.312l.064.073q.247.283.506.556l.087.091q.253.263.517.517l.084.08q.275.26.56.51L53.69,43q.487.421,1,.808l.017.012c.148.11.295.221.446.327Zm2.127-7.829-.013-.035q-.063-.171-.121-.343l-.007-.022q-.174-.516-.313-1.047c-.007-.025-.014-.05-.02-.075-.022-.085-.042-.171-.063-.256-.014-.06-.029-.121-.043-.181-.017-.076-.034-.152-.05-.228s-.026-.125-.039-.188-.026-.132-.038-.2-.028-.156-.041-.234c-.009-.054-.018-.109-.027-.163-.014-.091-.028-.182-.041-.273-.006-.044-.013-.089-.019-.134-.013-.1-.025-.2-.037-.3,0-.037-.009-.074-.013-.112-.011-.107-.021-.215-.03-.322,0-.033-.006-.066-.009-.1-.009-.11-.016-.22-.022-.33,0-.031,0-.063-.006-.094-.006-.112-.01-.224-.014-.337,0-.03,0-.059,0-.089q-.006-.212-.006-.424V27.131a25.123,25.123,0,0,0,5.441.08l.185-.018q.229-.022.459-.047.2-.022.408-.048l.116-.015a37.448,37.448,0,0,0,9.952-2.827,54.139,54.139,0,0,0,9.826-5.536,12.094,12.094,0,0,0,5.457,5.287c0,.123.006.247.006.366v4.8q0,.212-.006.424c0,.03,0,.059,0,.089,0,.112-.008.224-.014.337,0,.032,0,.063-.006.094-.007.11-.014.22-.022.33,0,.033-.006.066-.009.1-.009.107-.019.215-.03.322,0,.037-.009.074-.013.112-.012.1-.023.2-.037.3-.006.045-.012.089-.019.134-.013.091-.026.182-.041.273-.009.054-.018.109-.027.163q-.02.117-.041.234-.018.1-.038.2t-.039.188c-.016.076-.033.152-.05.228s-.028.121-.043.182c-.02.085-.041.17-.062.255-.007.026-.014.052-.021.078q-.138.528-.311,1.041l-.009.027q-.058.171-.12.34l-.014.039a15.92,15.92,0,0,1-2.5,4.424l-2.623.45a3.417,3.417,0,0,0-3.554-1.681l-3.807.653a3.426,3.426,0,0,0-.815,6.506,16.048,16.048,0,0,1-1.656.086,15.832,15.832,0,0,1-6.5-1.388l-.132-.06A16.016,16.016,0,0,1,50.663,34.662Zm22.7,7.2a1.083,1.083,0,0,1-.706.445l-3.808.653a1.1,1.1,0,0,1-.186.016,1.09,1.09,0,0,1-.182-2.165l3.808-.653a1.117,1.117,0,0,1,.187-.016,1.09,1.09,0,0,1,.887,1.72ZM59.9,59.16a2.236,2.236,0,0,1-2.41-.645l-5.417-6.182,4.018-1.253a.067.067,0,0,1,.066.015l7.249,6.87Zm-1.127-8.8a4.278,4.278,0,0,0,1.151-2.91v-.914c.076.025.153.046.229.07l.116.035q.347.106.7.2l.126.033q.2.05.391.1l.1.023q.337.076.678.139l.237.042c.11.019.22.038.33.055q.249.038.5.069l.264.03q.212.024.426.042l.18.016c.2.015.4.026.6.035l.171.007c.213.007.426.012.641.012s.428-.005.641-.012l.171-.007c.2-.009.4-.02.6-.035l.18-.016q.214-.019.426-.042l.264-.03q.251-.031.5-.069c.11-.017.22-.036.33-.055l.237-.042q.34-.063.678-.139l.1-.023q.2-.046.391-.1l.126-.033q.351-.092.7-.2l.116-.035c.076-.024.153-.045.229-.07v.914a4.277,4.277,0,0,0,1.151,2.91l-6.84,6.482Zm15.311,7.762a3.023,3.023,0,0,1-3.258.872L67.82,57.966,75.07,51.1a.067.067,0,0,1,.066-.015l4.018,1.253Z" transform="translate(-30.537)" fill="#fff"/>
      </g>
    </g>
    <g id="Group_117" data-name="Group 117" transform="translate(660.016 1182.549)">
      <g id="Group_116" data-name="Group 116">
        <path id="Path_461" data-name="Path 461" d="M131.48,416.972h-8.8a2.055,2.055,0,0,0-2.052,2.053v3.9a2.055,2.055,0,0,0,2.052,2.052h8.8a2.055,2.055,0,0,0,2.052-2.052v-3.9A2.055,2.055,0,0,0,131.48,416.972Zm-.284,5.666h-8.231v-3.33H131.2Z" transform="translate(-120.63 -416.972)" fill="#fff"/>
      </g>
    </g>
  </g>
</svg>
