<svg xmlns="http://www.w3.org/2000/svg" width="71" height="52.541" viewBox="0 0 71 52.541">
  <g id="Group_20218" data-name="Group 20218" transform="translate(-153 -4319.459)">
    <g id="Group_8094" data-name="Group 8094" transform="translate(182.118 4319.459)">
      <g id="Group_8093" data-name="Group 8093">
        <path id="Path_72740" data-name="Path 72740" d="M87.885,5.32A6.2,6.2,0,0,0,76.734,2.547a.729.729,0,1,0,1.178.861A4.744,4.744,0,0,1,86.44,5.526a.73.73,0,0,0,.722.627.781.781,0,0,0,.1-.007A.73.73,0,0,0,87.885,5.32Z" transform="translate(-76.593)" fill="#94daec"/>
      </g>
    </g>
    <g id="Group_8096" data-name="Group 8096" transform="translate(170.486 4328.945)">
      <g id="Group_8095" data-name="Group 8095" transform="translate(0)">
        <path id="Path_72741" data-name="Path 72741" d="M55.648,48.375l-2.189-3.649a.729.729,0,0,0-.626-.354h-2.1a.73.73,0,0,0,0,1.459H52.42l1.313,2.189H24.2l1.313-2.189h.773a.73.73,0,1,0,0-1.459H25.1a.729.729,0,0,0-.626.354l-2.189,3.649a.73.73,0,0,0,.626,1.105H55.022a.73.73,0,0,0,.626-1.105Z" transform="translate(-22.185 -44.372)" fill="#94daec"/>
      </g>
    </g>
    <g id="Group_8098" data-name="Group 8098" transform="translate(188.265 4323.548)">
      <g id="Group_8097" data-name="Group 8097">
        <path id="Path_72742" data-name="Path 72742" d="M117.391,21.8a.729.729,0,0,0-.454-.326l-9.948-2.327a.729.729,0,0,0-.877.544l-.75,3.207a.73.73,0,0,0,1.421.332l.584-2.5,8.526,1.994-1.34,5.728a.729.729,0,0,0,.544.876.738.738,0,0,0,.167.019.729.729,0,0,0,.709-.563l1.506-6.439A.727.727,0,0,0,117.391,21.8Z" transform="translate(-105.343 -19.126)" fill="#94daec"/>
      </g>
    </g>
    <g id="Group_8100" data-name="Group 8100" transform="translate(173.332 4321.677)">
      <g id="Group_8099" data-name="Group 8099">
        <path id="Path_72743" data-name="Path 72743" d="M49.818,16.641l-.665-5.624a.73.73,0,0,0-.81-.639l-12.2,1.443a.73.73,0,0,0-.639.81l1.108,9.379a.73.73,0,0,0,.724.644.8.8,0,0,0,.087-.005.73.73,0,0,0,.639-.81l-1.023-8.655L47.79,11.913l.579,4.9a.73.73,0,0,0,1.449-.171Z" transform="translate(-35.494 -10.374)" fill="#94daec"/>
      </g>
    </g>
    <g id="Group_8102" data-name="Group 8102" transform="translate(178.784 4326.464)">
      <g id="Group_8101" data-name="Group 8101">
        <path id="Path_72744" data-name="Path 72744" d="M75.64,39.351l-1.448-6.023a.729.729,0,0,0-.88-.539L61.556,35.617a.73.73,0,0,0-.539.88l.724,3.01a.73.73,0,1,0,1.419-.341l-.553-2.3,10.336-2.485,1.278,5.313a.73.73,0,0,0,1.419-.342Z" transform="translate(-60.997 -32.769)" fill="#94daec"/>
      </g>
    </g>
    <g id="Group_8104" data-name="Group 8104" transform="translate(169.027 4332.594)">
      <g id="Group_8103" data-name="Group 8103" transform="translate(0)">
        <path id="Path_72745" data-name="Path 72745" d="M50.384,62.133a.73.73,0,0,0-.729-.692H17.548a.73.73,0,0,0-.729.692l-1.46,28.459a.73.73,0,0,0,.729.767H51.115a.729.729,0,0,0,.729-.767ZM16.856,89.9l1.385-27H48.962l1.385,27Z" transform="translate(-15.359 -61.441)" fill="#94daec"/>
      </g>
    </g>
    <g id="Group_8106" data-name="Group 8106" transform="translate(190.554 4335.513)">
      <g id="Group_8105" data-name="Group 8105">
        <path id="Path_72746" data-name="Path 72746" d="M118.241,75.093a2.189,2.189,0,1,0,2.189,2.189A2.191,2.191,0,0,0,118.241,75.093Zm0,2.919a.73.73,0,1,1,.73-.73A.73.73,0,0,1,118.241,78.012Z" transform="translate(-116.052 -75.093)" fill="#94daec"/>
      </g>
    </g>
    <g id="Group_8108" data-name="Group 8108" transform="translate(179.608 4335.513)">
      <g id="Group_8107" data-name="Group 8107">
        <path id="Path_72747" data-name="Path 72747" d="M67.041,75.093a2.189,2.189,0,1,0,2.189,2.189A2.191,2.191,0,0,0,67.041,75.093Zm0,2.919a.73.73,0,1,1,.73-.73A.73.73,0,0,1,67.041,78.012Z" transform="translate(-64.852 -75.093)" fill="#94daec"/>
      </g>
    </g>
    <g id="Group_8110" data-name="Group 8110" transform="translate(181.067 4337.702)">
      <g id="Group_8109" data-name="Group 8109">
        <path id="Path_72748" data-name="Path 72748" d="M83.354,85.333H83.3a.73.73,0,0,0-.73.73.722.722,0,0,0,.056.281v3.732a4.743,4.743,0,0,1-9.486,0V86.063a.73.73,0,1,0-1.459,0v4.013a6.2,6.2,0,0,0,12.4,0V86.063A.73.73,0,0,0,83.354,85.333Z" transform="translate(-71.679 -85.333)" fill="#94daec"/>
      </g>
    </g>
    <circle id="Ellipse_379" data-name="Ellipse 379" cx="2" cy="2" r="2" transform="translate(209 4320)" fill="#94daec"/>
    <circle id="Ellipse_380" data-name="Ellipse 380" cx="1.5" cy="1.5" r="1.5" transform="translate(166 4369)" fill="#94daec"/>
    <g id="Ellipse_381" data-name="Ellipse 381" transform="translate(153 4320)" fill="none" stroke="#94daec" stroke-width="1.2" stroke-dasharray="2">
      <circle cx="5" cy="5" r="5" stroke="none"/>
      <circle cx="5" cy="5" r="4.4" fill="none"/>
    </g>
    <g id="Ellipse_382" data-name="Ellipse 382" transform="translate(217 4354)" fill="none" stroke="#94daec" stroke-width="0.5">
      <circle cx="3.5" cy="3.5" r="3.5" stroke="none"/>
      <circle cx="3.5" cy="3.5" r="3.25" fill="none"/>
    </g>
  </g>
</svg>
