<svg xmlns="http://www.w3.org/2000/svg" width="24.5" height="22.458" viewBox="0 0 24.5 22.458">
  <g id="Group_20218" data-name="Group 20218" transform="translate(-139 -1241.083)">
    <path id="Path_89601" data-name="Path 89601" d="M14.67,15.184a3.061,3.061,0,0,1-4.33,0L6,10.846a3.062,3.062,0,1,1,4.33-4.33l2.173,2.172,6-6A11.171,11.171,0,1,0,21.955,7.9Zm0,0" transform="translate(139 1241.079)" fill="#94daec"/>
    <path id="Path_89602" data-name="Path 89602" d="M154.688,34.347a1.018,1.018,0,0,1-.722-.3l-4.338-4.339a1.021,1.021,0,0,1,1.443-1.443l3.617,3.617L164.94,21.63a1.021,1.021,0,0,1,1.443,1.444L155.409,34.048A1.018,1.018,0,0,1,154.688,34.347Zm0,0" transform="translate(-3.183 1220.772)" fill="#94daec"/>
  </g>
</svg>
