<svg xmlns="http://www.w3.org/2000/svg" width="52.378" height="55.375" viewBox="0 0 52.378 55.375">
  <g id="Group_7560" data-name="Group 7560" transform="translate(-237.618 -6228.377)">
    <g id="Group_7555" data-name="Group 7555" transform="translate(237.618 6228.377)">
      <path id="Path_70810" data-name="Path 70810" d="M62.119,0H17.967a4.118,4.118,0,0,0-4.113,4.113V38.87a.811.811,0,0,0,1.622,0V4.113a2.494,2.494,0,0,1,2.491-2.491H62.119A2.493,2.493,0,0,1,64.61,4.113V51.262a2.493,2.493,0,0,1-2.491,2.491H17.967a2.493,2.493,0,0,1-2.491-2.491V42.683a.811.811,0,1,0-1.622,0v8.579a4.118,4.118,0,0,0,4.113,4.113H62.119a4.118,4.118,0,0,0,4.113-4.113V4.113A4.118,4.118,0,0,0,62.119,0Z" transform="translate(-13.854)" fill="#94daec"/>
      <path id="Path_70811" data-name="Path 70811" d="M94.87,44.692a32.526,32.526,0,0,0-6.6-.727,33,33,0,0,0-18.767,5.788,4.2,4.2,0,0,0,2.417,7.628h32.31a4.2,4.2,0,0,0,2.447-7.605,31.092,31.092,0,0,0-8.113-4.068.811.811,0,1,0-.516,1.538,29.473,29.473,0,0,1,7.69,3.853,2.484,2.484,0,0,1,.95,2.855,2.517,2.517,0,0,1-2.459,1.8H71.923a2.575,2.575,0,0,1-1.481-4.68,31.379,31.379,0,0,1,17.82-5.491,30.892,30.892,0,0,1,6.268.691.811.811,0,1,0,.341-1.586Z" transform="translate(-61.892 -39.208)" fill="#94daec"/>
      <path id="Path_70812" data-name="Path 70812" d="M209.417,86.217c-.3.4-.444.581-.351.882a.564.564,0,0,0,.367.371,4.224,4.224,0,0,0,1.107.048c.374,0,.883,0,1.578-.012a.541.541,0,0,0-.007-1.082H212.1c-.51.006-1.052.01-1.5.011.275-.367.661-.894,1.189-1.648a2.954,2.954,0,0,0,.645-1.569,1.8,1.8,0,0,0-3.566-.348.541.541,0,0,0,1.061.209.718.718,0,0,1,1.25-.327c.39.456.01,1.005-.277,1.415C210.133,85.281,209.667,85.89,209.417,86.217Z" transform="translate(-187.774 -72.612)" fill="#94daec"/>
      <path id="Path_70813" data-name="Path 70813" d="M167.435,81.954a.541.541,0,0,0-.647-.867,4.589,4.589,0,0,0-.915.962,5.621,5.621,0,0,0-.655,1.146,3.359,3.359,0,0,0-.293,2.391,1.957,1.957,0,1,0,1.6-2.568A4.244,4.244,0,0,1,167.435,81.954Zm-.667,2.13a.882.882,0,1,1-.882.882A.883.883,0,0,1,166.768,84.084Z" transform="translate(-148.479 -72.221)" fill="#94daec"/>
      <path id="Path_70814" data-name="Path 70814" d="M269.21,93.169a.541.541,0,0,0-.541.541v3.746a.541.541,0,1,0,1.082,0v-.8l1.231,1.188a.541.541,0,0,0,.751-.778l-1.615-1.558,1.472-1.353a.541.541,0,1,0-.732-.8l-1.108,1.018V93.71A.541.541,0,0,0,269.21,93.169Z" transform="translate(-241.107 -83.091)" fill="#94daec"/>
      <path id="Path_70815" data-name="Path 70815" d="M307.329,94.251a1.324,1.324,0,0,1,.744.227.541.541,0,1,0,.605-.9A2.414,2.414,0,1,0,307.329,98a2.2,2.2,0,0,0,2.157-2.414.541.541,0,0,0-.541-.541h-1.12a.541.541,0,0,0,0,1.082h.507a1,1,0,0,1-1,.791,1.332,1.332,0,0,1,0-2.664Z" transform="translate(-273.433 -83.091)" fill="#94daec"/>
      <path id="Path_70816" data-name="Path 70816" d="M226.209,459.438h-6.371a.811.811,0,0,0,0,1.622h6.371a.811.811,0,1,0,0-1.622Z" transform="translate(-196.834 -409.743)" fill="#94daec"/>
      <path id="Path_70817" data-name="Path 70817" d="M226.209,426.88h-6.371a.811.811,0,0,0,0,1.622h6.371a.811.811,0,1,0,0-1.622Z" transform="translate(-196.834 -380.707)" fill="#94daec"/>
    </g>
  </g>
</svg>
